<?xml version="1.0" encoding="utf-8"?>
<!-- Generator: Adobe Illustrator 16.0.3, SVG Export Plug-In . SVG Version: 6.00 Build 0)  -->
<!DOCTYPE svg PUBLIC "-//W3C//DTD SVG 1.1//EN" "http://www.w3.org/Graphics/SVG/1.1/DTD/svg11.dtd">
<svg version="1.1" id="Capa_1" xmlns="http://www.w3.org/2000/svg" xmlns:xlink="http://www.w3.org/1999/xlink" x="0px" y="0px"
	 width="299.743px" height="290px" viewBox="0 0 299.743 290" enable-background="new 0 0 299.743 290" xml:space="preserve">
<g>
</g>
<g>
</g>
<g>
	<path fill-rule="evenodd" clip-rule="evenodd" fill="#CDB39F" d="M298.76,57.167c-1.24-0.648-2.246-0.271-3.275,0.271
		c-0.355,0.185-0.596,0.585-1.064,0.626c-1.855,0.144-3.555,0.99-5.268,1.539c-3.668,1.169-7.596,1.022-11.152,2.591
		c-2.174,0.961-4.656,0.68-6.92,1.52c-2.014,0.748-4.172,1.239-6.35,0.444c-0.205,0.007-0.406,0.016-0.609,0.023
		c-0.123,0.523-0.584,0.516-0.979,0.665c-4.123,1.579-8.504,2.192-12.781,3.034c-3.924,0.77-7.938,1.255-11.869,2.049
		c-3.168,0.635-6.359,1.224-9.531,1.8c-3.451,0.623-6.922,1.229-10.398,1.755c-2.074,0.31-4.074,1.051-6.215,0.622
		c-1.109,1.212-2.564,0.333-3.824,0.632c-0.949,1.1-2.342,0.917-3.559,1.239c-1.797,0.171-3.588,0.471-5.398,0.34
		c-0.119,0.166-0.205,0.438-0.365,0.488c-2.842,0.925-5.846,1.158-8.709,2.034c-2.432,0.746-5.057,0.647-7.488,1.45
		c-3.547,1.168-7.311,1.303-10.881,2.503c-2.658,0.896-5.574,0.994-8.35,1.686c-3.98,0.989-8.027,1.691-12.012,2.73
		c-3.551,0.925-7.244,1.331-10.729,2.536c-2.496,0.86-5.279,0.434-7.637,1.819c-0.215,0.12-0.549,0.009-0.785,0.108
		c-1.078,0.457-2.285-0.346-3.264,0.178c-2.123,1.139-4.578,0.739-6.801,1.886c-2.131,1.097-4.672,1.648-7.309,1.44
		c-2.248-0.178-4.6,0.319-6.82,0.178c-2.648-0.166-5.291,0.211-7.92-0.171c-3.053-0.441-5.906,0.83-8.863,1.197
		c-4.232,0.527-8.508,1.014-12.693,1.975c-3.094,0.71-6.195,1.4-9.311,1.988c-3.615,0.681-6.963,2.24-10.527,3.056
		c-0.422,0.093-0.988,0.531-1.324,0.046c-0.373-0.537-0.309-1.254,0.025-1.818c0.238-0.393,0.627-0.728,1.016-0.987
		c1.223-0.832,2.273-1.885,3.43-2.794c1.715-1.337,3.307-2.896,5.096-4.127c3.623-2.492,6.859-5.506,10.859-7.512
		c2.859-1.433,5.285-3.719,8.135-5.178c3.238-1.655,6.402-3.47,9.744-4.949c3.084-1.362,5.992-3.11,9.027-4.588
		c4.648-2.269,9.375-4.37,14.137-6.393c2.961-1.258,5.969-2.378,9.021-3.387c1.75-0.58,3.467-1.276,5.232-1.822
		c2.773-0.855,5.533-1.902,8.383-2.367c3.303-0.536,6.48-1.563,9.742-2.231c4.451-0.911,8.916-1.088,13.389-1.291
		c2.246-0.101,4.584,0.096,6.758,0.648c1.695,0.433,3.594,0.606,4.988,2.083c0.742,0.787,2.336,1.337,2.973,0.298
		c1.201-1.956,3.162-3.53,3.363-6.062c0.158-2.045-0.188-4.05-1.664-5.428c-2.434-2.271-5.699-3.124-8.82-3.65
		c-4.352-0.738-8.797-1.035-13.264-0.51c-1.813,0.213-3.695,0.348-5.547,0.049c-0.668,0.121-1.166,0.771-1.924,0.612
		c-0.184,0.314-0.385,0.333-0.613,0.045c-0.32,0.003-0.641,0.007-0.959,0.011c-0.402,1.01-1.262,0.482-1.934,0.579
		c-2.207-0.128-4.146,1.396-6.389,1.025c-0.789,0.317-1.557,0.715-2.367,0.945c-3.104,0.878-6.338,1.25-9.324,2.572
		c-2.996,1.326-6.205,2.065-9.27,3.239c-1.439,0.552-2.723,1.544-4.244,1.758c-1.922,0.267-3.545,1.25-5.211,2.036
		c-2.855,1.352-5.703,2.788-8.527,4.173c-3.453,1.697-6.885,3.484-10.186,5.396c-3.717,2.147-7.691,3.82-11.205,6.427
		c-2.031,1.505-4.502,2.608-6.73,3.997c-2.43,1.514-4.871,3.028-7.203,4.67c-4.047,2.845-7.936,5.92-11.826,8.979
		c-2.08,1.631-4.061,3.396-6.025,5.171c-2.545,2.309-5.043,4.67-7.537,7.034c-4.428,4.197-8.652,8.59-12.631,13.218
		c-1.191,1.394-2.732,2.469-3.592,4.18c-0.346,0.688-1.027,1.206-1.531,1.822c-1.781,2.165-2.941,4.815-5.051,6.703
		c-1.168,1.041-2.238,2.03-2.506,3.65c-0.041,0.236-0.322,0.421-0.453,0.647c-1.033,1.798-3.098,3.128-2.5,5.677
		c0.074,0.317-0.295,0.772-0.525,1.124c-1.328,2.044-1.893,4.394-2.191,6.714c-0.338,2.596-0.324,5.284,0.137,7.873
		c0.172,0.945,0.037,1.985,0.711,2.953c2.475,3.528,4.768,7.075,8.758,9.311c2.186,1.222,4.361,2.291,6.713,3.003
		c7.117,2.157,14.234,0.787,21.234-0.509c3.83-0.713,7.908-1.112,11.318-3.425c0.129-0.085,0.305-0.125,0.461-0.125
		c1.783-0.049,3.35-0.903,5.004-1.405c2.443-0.738,4.852-1.646,7.193-2.658c1.254-0.543,2.715-0.738,3.758-1.473
		c1.834-1.292,3.801-2.219,5.822-3.115c1.031-0.458,2.572-0.239,3.094-0.917c0.912-1.18,2.152-1.455,3.268-2.103
		c0.57-0.332,1.201-0.787,1.746-0.29c0.578,0.521,0.25,1.233-0.025,1.906c-1.273,3.133-2.873,6.119-4.213,9.214
		c-2.336,5.408-4.879,10.74-6.723,16.34c-0.928,2.824-2.551,5.318-3.521,8.072c-0.807,2.307-2.18,4.443-2.297,6.987
		c-0.023,0.558-0.316,1.114-0.553,1.649c-1.256,2.835-2.393,5.695-3.027,8.769c-0.596,2.897-2.076,5.55-2.346,8.588
		c-0.146,1.623-1.301,3.169-1.385,4.783c-0.154,2.889-1.115,5.566-1.672,8.34c-0.313,1.572-1.141,3.053-1.555,4.527
		c-0.961,3.45-1.434,7.081-1.688,10.676c-0.158,2.226-0.842,4.369-0.813,6.626c0.02,1.319,0.551,2.524,0.428,3.875
		c-0.236,2.581-0.559,5.221-0.258,7.765c0.432,3.655,0.146,7.724,3.844,10.211c0.207,0.14,0.398,0.399,0.461,0.64
		c0.225,0.902,0.967,1.309,1.689,1.556c2.902,1.002,5.844,1.956,8.395-0.824c0.104-0.116,0.258-0.191,0.395-0.263
		c2.152-1.044,2.715-3.478,1.188-5.253c-0.158-0.178-0.455-0.343-0.693-0.343c-2.385-0.016-3.1-1.824-3.92-3.56
		c-0.875-1.85-0.523-3.846-0.572-5.747c-0.111-4.059,0.094-8.138,0.59-12.181c0.244-1.993,0.316-4.062,0.951-5.933
		c0.453-1.326,0.939-2.657,0.893-3.979c-0.145-4.004,0.928-7.84,1.957-11.561c1.051-3.78,0.813-7.958,3.188-11.363
		c0.025-0.037,0.025-0.102,0.021-0.16c-0.217-2.504,1.607-4.409,2.004-6.765c0.205-1.207,0.609-2.455,0.988-3.662
		c0.588-1.884,1.9-3.474,2.143-5.463c0.168-1.434,0.568-2.604,2.838-2.549c-1.838-0.752-1.848-1.9-1.359-2.91
		c2.027-4.184,3.332-8.654,5.24-12.884c1.063-2.366,2.271-4.657,3.076-7.136c0.779-2.404,3.184-4.069,3.156-6.86
		c-0.004-0.17,0.248-0.335,0.355-0.513c1.537-2.529,2.781-5.224,4.096-7.858c1.65-3.292,3.072-6.685,4.813-9.95
		c1.398-2.625,3.428-4.191,5.871-5.551c1.744-0.971,3.664-1.584,5.156-3.116c0.744-0.772,1.391-1.71,2.359-2.31
		c2.723-1.697,5.221-3.63,7.318-6.138c1.916-2.297,4.188-4.275,5.846-6.824c0.734-1.133,2.152-1.671,2.723-3.117
		c0.955-2.422,1.863-4.798,0.514-7.302c-1.104-2.053-0.967-2.455,1.33-2.761c0.262-0.037,0.541-0.026,0.791-0.103
		c5.676-1.789,11.563-2.722,17.291-4.307c5.299-1.466,10.766-2.208,16.066-3.775c5.758-1.702,11.678-2.889,17.563-4.104
		c2.139-0.442,4.074-1.505,6.25-1.727c2.885-0.294,5.73-0.565,8.539-1.55c2.691-0.943,5.443-1.657,7.826-3.447
		c0.426,0.955,0.359,3.034,2.043,0.963c0.123-0.153,0.508-0.155,0.764-0.131c1.686,0.179,3.262-0.316,4.852-0.742
		c1.383-0.37,2.75-0.89,4.156-1.028c1.6-0.159,3.107-0.465,4.609-1.052c2.27-0.884,4.816-0.674,7.088-1.652
		c0.268-0.116,0.633-0.003,0.949-0.025c0.633-0.038,1.357,0.085,1.885-0.178c2.889-1.457,6.275-1.088,9.15-2.551
		c0.313-0.157,0.732-0.131,1.102-0.139c1.666-0.029,3.49,0.215,3.555-2.45c0.449,0.834,0.221,2.424,1.355,1.845
		c1.307-0.662,2.664-0.645,3.967-1.024c3.268-0.95,6.318-2.701,9.902-2.605c0.916,0.025,2.293-0.182,2.428-1.725
		c0.035-0.403,0.314-0.689,0.752-0.679c0.434,0.011,0.732,0.263,0.643,0.715c-0.129,0.642,0.211,0.521,0.664,0.67
		c2.195,0.728,3.467-1.201,5.227-1.696c2.381-0.665,4.654-1.816,7.064-2.242c2.229-0.397,4.293-0.839,5.992-2.406
		c0.227-0.207,0.506-0.436,0.797-0.489c1.439-0.271,2.316-1.168,2.803-2.478c0.203-0.53,0.572-0.907,1.061-0.723
		c1.561,0.586,2.264-0.497,2.992-1.455c1.029-1.348,1.215-3.037,1.645-4.608C299.793,58.819,300.039,57.838,298.76,57.167z
		 M108.611,117.051c-1.246,1.917-2.305,3.939-3.021,6.083c-0.676,2.009-2.172,3.48-3.031,5.357c-1.107,2.42-3.176,3.755-5.559,4.925
		c-1.861,0.916-3.707,1.925-5.557,2.903c-3.074,1.62-6.184,3.153-9.359,4.567c-1.594,0.71-3.367,1.188-4.795,2.034
		c-3.301,1.946-6.816,3.319-10.314,4.772c-2.527,1.058-5.057,2.131-7.65,2.993c-2.482,0.829-4.703,2.339-7.463,2.479
		c-5.027,0.245-9.781,2.305-14.928,2.136c-4.145-0.14-8.1-0.734-11.719-2.755c-1.127-0.632-1.791-1.911-2.453-3.051
		c-1.516-2.598-1.166-5.229,0.189-7.73c1.957-3.619,3.941-7.234,6.506-10.479c1.873-2.372,3.539-4.968,5.711-7.035
		c2.627-2.497,4.713-5.476,7.436-7.876c0.672-0.589,1.361-0.938,2.119-1.06c0.172-0.252,0.367-0.486,0.588-0.701
		c-0.184-0.049-0.34-0.152-0.393-0.397c-0.063-0.309,0.184-0.461,0.383-0.644c3.273-2.956,6.074-6.407,9.549-9.156
		c0.408-0.324,0.77-0.852,1.367-0.479c0.648,0.4,0.211,0.958,0.082,1.435c-0.801,3.019-0.492,6.204,0.852,8.724
		c2.252,4.221,5.545,7.38,11.129,7.016c2.756-0.178,5.59-0.37,8.396,0.056c0.898,0.137,1.904-0.447,2.857-0.696
		c5.078-1.326,10.24-2.03,15.457-2.573c1.363-0.143,2.922-0.903,4.414-1.33c2.764-0.794,5.539-1.216,8.436-1.02
		C109.225,115.642,109.1,116.308,108.611,117.051z"/>
</g>
</svg>
