<?xml version="1.0" encoding="utf-8"?>
<!-- Generator: Adobe Illustrator 16.0.3, SVG Export Plug-In . SVG Version: 6.00 Build 0)  -->
<!DOCTYPE svg PUBLIC "-//W3C//DTD SVG 1.1//EN" "http://www.w3.org/Graphics/SVG/1.1/DTD/svg11.dtd">
<svg version="1.1" id="Capa_1" xmlns="http://www.w3.org/2000/svg" xmlns:xlink="http://www.w3.org/1999/xlink" x="0px" y="0px"
	 width="298.799px" height="290px" viewBox="0 0 298.799 290" enable-background="new 0 0 298.799 290" xml:space="preserve">
<g>
	<path fill-rule="evenodd" clip-rule="evenodd" fill="none" d="M518.201-68.285v-0.664c-0.816-0.457-1.041-1.211-1.053-1.961
		c-0.236,0.064-0.475,0.125-0.711,0.189c0.002,0.297,0.004,0.594,0.004,0.889c0.002,0.592-0.221,0.85-0.789,0.969
		c-1.494,0.314-3.004,0.107-4.492,0.084c-0.775-0.012-1.551,0.004-2.326,0.01c-0.756,0.184-1.51,0.373-2.266,0.549
		c2.748,0.225,5.514,0.34,8.266-0.016c1.143-0.146,1.525,0.164,1.607,1.318c0.105,1.516-0.352,3.014-0.201,4.504
		c0.184,1.803-0.104,3.58-0.041,5.371c0.051,1.451-0.232,1.742-1.719,1.799c-1.434,0.055-2.871,0.012-4.658,0.012
		c-1.229-0.07-2.822,0.166-4.389-0.1c-1.795-0.303-2.258-0.82-1.951-2.59c0.211-1.225,0.094-2.455,0.344-3.695
		c0.189-0.947-0.154-2.121-0.125-3.217c0.014-0.475,0.078-0.938,0.117-1.402c0.057-0.658,0.141-1.104,0.287-1.418
		c-0.465,0.104-0.93,0.207-1.396,0.307c0.055,3.432,0.277,6.867-0.16,10.291c-0.217,1.695-0.248,1.785-2.771,1.729
		c-0.848-0.018-1.672,0.09-2.502,0.08c-1.982-0.023-3.967-0.1-5.945-0.221c-1.258-0.078-1.693-1.193-1.361-2.387
		c0.48-1.73,0.91-3.539,0.297-5.344c-0.197-0.58-0.359-1.051-0.086-1.676c-0.35,0.068-0.697,0.139-1.045,0.209
		c0.023,0.713,0.031,1.43-0.074,2.15c-0.258,1.754-0.064,3.574-0.07,5.365c-0.004,1.393-0.248,1.654-1.666,1.693
		c-0.957,0.027-1.916,0.006-2.873,0.006h-5.943c-1.797,0-2.186-0.361-2.348-2.18c-0.016-0.182-0.029-0.371,0-0.551
		c0.186-1.178,0.193-2.357,0.143-3.533c-0.277,0.072-0.555,0.145-0.832,0.219c-0.004,0.447-0.002,0.896-0.006,1.344
		c-0.012,1.205-0.25,2.41-0.201,3.627c0.023,0.609-0.338,0.762-0.893,0.875c-1.537,0.314-3.084,0.143-5.238,0.229
		c-1.416,0.176-3.422-0.285-5.445-0.262c-0.721,0.008-1.047-0.354-1.041-1.105c0.004-0.395,0.014-0.789,0.021-1.184
		c-0.303,0.084-0.604,0.166-0.906,0.248c0,0.082,0,0.164,0,0.246c-0.006,1.369-0.314,1.688-1.656,1.799
		c-2.201,0.182-4.404,0.203-6.605,0.135c-1.174,0.291-2.352,0.57-3.529,0.842c0.324-0.074,0.758-0.088,1.371-0.096
		c3.199-0.033,6.41,0.25,9.592-0.246c0.803-0.125,0.85,0.201,0.838,0.807c-0.045,2.67,0.07,5.342-0.211,8.006
		c-0.1,0.939,0.115,1.877,0.029,2.84c-0.082,0.926-0.445,1.229-1.295,1.223c-2.092-0.014-4.184-0.004-6.395-0.004
		c-1.275-0.041-2.686,0.16-4.045-0.32c-0.414-0.146-0.863-0.232-0.912-0.811c-0.27-3.211-0.066-6.426,0.125-9.625
		c0.068-1.129,0.225-1.566,0.768-1.742c-0.566,0.129-1.133,0.256-1.699,0.379c0.041,0.217,0.059,0.457,0.08,0.686
		c0.078,0.834,0.213,1.699-0.23,2.488c-0.293,0.521,0.045,1.004,0.047,1.504c0.014,2.088,0.01,4.174,0.01,6.26
		c0.002,0.818-0.639,1.158-1.225,1.137c-1.59-0.061-3.199,0.377-4.785-0.283c-0.529-0.221-1.24,0.109-1.797-0.406
		c-0.148-0.137-0.34,0.309-0.514,0.484c-0.164,0.166-0.367,0.293-0.578,0.117c-0.221-0.182-0.096-0.391,0.025-0.586
		c0.773-1.256,1.969-1.754,3.373-1.793c0.363-0.01,0.664,0.027,0.799-0.367c0.09-0.26,0.061-0.533-0.174-0.701
		c-0.334-0.238-0.516,0.1-0.76,0.236c-1.066,0.592-3.307-0.129-3.834-1.23c-0.156-0.326-0.268-0.672-0.488-1.236
		c-0.162,0.42-0.205,0.637-0.318,0.811c-0.299,0.459-0.797,0.465-1.178,0.258c-0.492-0.27-0.207-0.723,0.002-1.051
		c0.152-0.238,0.438-0.385,0.629-0.604c0.248-0.281,0.311-0.66,0.006-0.883c-0.449-0.33-0.412,0.166-0.504,0.395
		c-0.133,0.33-0.34,0.473-0.686,0.307c-0.328-0.158-0.377-0.385-0.24-0.725c0.342-0.842,0.654-1.697,0.969-2.551
		c0.037-0.1,0.084-0.193,0.135-0.283c-1.604,0.207-3.213,0.389-4.836,0.518c-6.432,0.514-6.383-9.49,0-10
		c1.123-0.09,2.242-0.205,3.355-0.338c0-1.396,0.012-2.793,0.035-4.189c0.025-1.414,0.664-1.959,2.041-1.959
		c2.865-0.002,5.73,0.002,8.596-0.004c0.383-0.002,0.791,0.082,1.275-0.225c-0.967-0.623-1.941-0.395-2.836-0.418
		c-2.539-0.07-5.082-0.02-7.625-0.037c-0.328-0.002-0.885,0.186-0.906-0.322c-0.021-0.504,0.545-0.457,0.93-0.553
		c2.83-0.703,5.801-0.727,8.551-1.85c0.686-0.281,1.51-0.25,2.273-0.316c0.465-0.039,0.521,0.334,0.508,0.682
		c-0.096,2.287,0.061,4.57-0.141,6.867c0.273-0.064,0.545-0.133,0.818-0.197c0.002-0.918,0-1.836,0.002-2.752
		c0-0.361-0.092-0.736,0.135-1.145c0.527,0.32,1.121,0.303,1.701,0.258c2.27-0.174,4.537,0.096,6.816-0.1
		c1.252-0.105,2.549,0.238,3.826-0.076c0.248-0.063,0.365,0.035,0.363,0.357c0.902-0.258,1.803-0.514,2.705-0.771
		c-0.352-0.035-0.703-0.072-1.051-0.107c-0.502-0.049-0.785-0.34-0.781-0.887c0.01-1.547,0.004-3.096,0.008-4.645
		c0-0.398,0.113-0.723,0.566-0.824c2.68-0.6,5.371-1.154,8.029-1.834c0.959-0.246,1.938-0.301,2.891-0.557
		c1.076-0.289,1.336-0.045,1.338,1.041c0,1.605,0.002,3.211,0.006,4.818c0.299-0.076,0.602-0.146,0.9-0.219
		c0-1.516,0.061-3.029,0.164-4.545c0.016-0.24-0.115-0.492-0.191-0.736c-0.053-0.172-0.166-0.488-0.033-0.49
		c0.967-0.008,1.367-1.199,2.426-1.066c0.906,0.115,1.768,0.006,2.568-0.682c0.518-0.445,1.408-0.365,2.111-0.457
		c1.313-0.17,2.639-0.322,3.822-0.861c2.656-1.211,5.473-0.49,8.197-0.76c1.818-0.18,3.721-0.137,5.586-0.102
		c0.338,0.008,0.729,0.143,1.277-0.438c-2.275,0-4.293,0.014-6.311-0.01c-0.375-0.004-1.008,0.221-1.074-0.223
		c-0.078-0.512,0.568-0.742,1.002-0.826c1.998-0.379,3.936-1.043,5.822-1.705c1.494-0.525,1.172,0.166,1.184,0.955
		c0.035,2.045,0.033,4.092,0.004,6.137c0.223-0.051,0.443-0.1,0.664-0.152c0.02-0.928,0.105-1.854,0.354-2.775
		c0.221-0.82,0.682-1.021,1.457-0.943c3.447,0.344,6.896,0.322,10.346,0.014c0.348-0.031,0.695-0.033,1.045-0.033
		c0.068-0.225,0.15-0.445,0.248-0.658c-0.541,0.035-1.082,0.197-1.621,0.193c-2.869-0.023-5.742,0.227-8.611-0.129
		c-0.59-0.074-1.225,0.051-1.84,0.076c-0.684,0.029-1.008-0.061-0.855-0.814c0.033-0.172,0.016-0.367-0.029-0.539
		c-0.516-1.955,0.381-3.203,2.025-4.082c1.086-0.58,1.904-1.449,2.611-2.43c0.512-0.713,0.844-1.539,1.453-2.195
		c0.912-0.982,0.043-2.209,0.385-3.285c0.057-0.174-0.219-0.27-0.408-0.275c-1.551-0.051-3.078-0.898-4.662-0.115
		c-0.371,0.184-0.703,0.098-0.807-0.422c-0.117-0.586-0.266-1.168-0.395-1.754c-0.373,0.076-0.75,0.139-1.125,0.219
		c-0.008,0.357-0.016,0.715-0.021,1.072c-0.012,0.801-0.41,0.998-1.115,0.99c-1.807-0.02-3.613-0.006-5.42-0.006
		c-0.66,0-1.322-0.004-1.982-0.008c-0.824,0.217-1.646,0.443-2.469,0.668c0.066,0.004,0.133,0.014,0.197,0.014
		c1.725,0.035,3.445-0.053,5.18,0.156c1.174,0.141,2.404-0.143,3.604-0.293c0.459-0.057,0.865-0.125,1.242,0.359
		c-0.551,0.4-1.148,0.627-1.793,0.723c-3.01,0.441-5.898,1.422-8.875,2.014c-0.514,0.102-1.004,0.258-1.465-0.133
		c-0.15-0.127-0.371-0.203-0.504-0.059c-1.172,1.275-2.848,1.053-4.305,1.475c-0.313,0.092-0.656,0.135-0.893,0.402
		c1.51,0.551,3.002,0.209,4.396-0.307c1.566-0.582,3.287-0.387,4.793-1.053c2.463-1.086,5.182-0.984,7.719-1.795
		c1.188-0.379,2.363-0.965,3.648-1.066c0.326-0.025,0.49-0.303,0.736-0.432c0.711-0.375,1.41-0.639,2.27-0.188
		c0.885,0.465,0.713,1.145,0.539,1.785c-0.299,1.086-0.428,2.256-1.139,3.189c-0.506,0.664-0.992,1.412-2.07,1.008
		c-0.342-0.127-0.598,0.133-0.736,0.5c-0.34,0.906-0.943,1.527-1.941,1.715c-0.199,0.039-0.395,0.195-0.553,0.34
		c-1.176,1.086-2.604,1.391-4.146,1.666c-1.668,0.295-3.242,1.092-4.891,1.553c-1.219,0.342-2.1,1.678-3.621,1.174
		c-0.313-0.104-0.549-0.02-0.459-0.465c0.064-0.313-0.143-0.486-0.443-0.494c-0.305-0.008-0.496,0.191-0.52,0.471
		c-0.094,1.068-1.049,1.211-1.684,1.193c-2.48-0.066-4.592,1.146-6.855,1.803c-0.9,0.264-1.842,0.252-2.746,0.711
		c-0.787,0.4-0.629-0.699-0.938-1.277c-0.047,1.846-1.311,1.676-2.463,1.697c-0.256,0.004-0.547-0.014-0.762,0.096
		c-1.992,1.014-4.336,0.758-6.336,1.764c-0.363,0.184-0.865,0.098-1.305,0.125c-0.221,0.016-0.473-0.064-0.658,0.018
		c-1.57,0.678-3.334,0.531-4.906,1.145c-1.039,0.404-2.084,0.617-3.191,0.727c-0.973,0.096-1.92,0.455-2.877,0.713
		c-1.102,0.295-2.193,0.637-3.359,0.514c-0.176-0.018-0.443-0.016-0.529,0.09c-1.166,1.434-1.119-0.006-1.414-0.666
		c-1.652,1.238-3.553,1.734-5.418,2.387c-1.945,0.682-3.916,0.871-5.914,1.074c-1.506,0.152-2.846,0.889-4.326,1.193
		c-4.076,0.842-8.174,1.664-12.16,2.842c-3.67,1.086-7.453,1.6-11.123,2.615c-3.967,1.098-8.043,1.744-11.973,2.98
		c-0.174,0.055-0.365,0.047-0.547,0.07c-1.59,0.213-1.684,0.492-0.92,1.912c0.932,1.734,0.305,3.379-0.357,5.057
		c-0.396,1.002-1.375,1.375-1.885,2.158c-1.148,1.764-2.721,3.137-4.047,4.725c-1.453,1.738-3.182,3.074-5.068,4.248
		c-0.67,0.418-1.117,1.068-1.633,1.602c-1.031,1.061-2.361,1.484-3.57,2.158c-1.691,0.939-3.096,2.025-4.064,3.844
		c-1.205,2.26-2.189,4.609-3.33,6.887c-0.912,1.824-1.773,3.689-2.838,5.441c-0.076,0.125-0.246,0.238-0.246,0.357
		c0.02,1.932-1.645,3.082-2.186,4.748c-0.555,1.715-1.393,3.305-2.131,4.939c-1.318,2.93-2.221,6.025-3.627,8.924
		c-0.336,0.695-0.33,1.492,0.941,2.012c-1.572-0.037-1.848,0.771-1.967,1.766c-0.164,1.379-1.074,2.479-1.482,3.783
		c-0.262,0.836-0.541,1.699-0.682,2.533c-0.277,1.633-1.539,2.951-1.389,4.688c0.004,0.035,0.004,0.08-0.016,0.107
		c-1.645,2.357-1.479,5.25-2.205,7.867c-0.715,2.578-1.457,5.232-1.355,8.004c0.033,0.918-0.307,1.84-0.617,2.758
		c-0.441,1.295-0.492,2.727-0.66,4.105c-0.342,2.801-0.484,5.623-0.408,8.436c0.033,1.314-0.209,2.697,0.396,3.979
		c0.568,1.201,1.063,2.453,2.715,2.463c0.162,0.002,0.369,0.113,0.479,0.24c1.057,1.227,0.67,2.91-0.82,3.635
		c-0.098,0.047-0.203,0.102-0.275,0.18c-1.764,1.926-3.801,1.266-5.813,0.574c-0.5-0.172-1.014-0.453-1.17-1.078
		c-0.041-0.166-0.174-0.346-0.318-0.441c-2.559-1.723-2.361-4.539-2.662-7.07c-0.209-1.762,0.016-3.59,0.18-5.377
		c0.086-0.936-0.281-1.77-0.295-2.682c-0.02-1.564,0.451-3.045,0.561-4.592c0.176-2.484,0.506-4.998,1.172-7.389
		c0.283-1.021,0.855-2.047,1.074-3.135c0.387-1.922,1.051-3.773,1.156-5.773c0.059-1.119,0.859-2.189,0.961-3.314
		c0.186-2.102,1.211-3.938,1.623-5.943c0.439-2.127,1.227-4.109,2.096-6.074c0.164-0.365,0.367-0.752,0.385-1.137
		c0.078-1.764,1.029-3.244,1.59-4.838c0.67-1.908,1.795-3.635,2.438-5.59c1.275-3.879,3.039-7.57,4.654-11.316
		c0.926-2.143,2.033-4.209,2.916-6.377c0.191-0.467,0.418-0.959,0.018-1.322c-0.379-0.342-0.813-0.025-1.207,0.203
		c-0.773,0.447-1.633,0.639-2.264,1.457c-0.361,0.467-1.428,0.314-2.141,0.633c-1.4,0.621-2.762,1.262-4.033,2.158
		c-0.721,0.508-1.734,0.645-2.6,1.02c-1.623,0.701-3.289,1.328-4.982,1.84c-1.145,0.348-2.229,0.941-3.465,0.973
		c-0.107,0.002-0.23,0.027-0.316,0.086c-2.363,1.602-5.186,1.879-7.838,2.371c-4.846,0.898-9.773,1.848-14.701,0.355
		c-1.629-0.494-3.137-1.234-4.648-2.082c-2.762-1.547-4.35-4.002-6.064-6.447c-0.467-0.668-0.375-1.387-0.492-2.043
		c-0.318-1.793-0.328-3.654-0.096-5.451c0.209-1.607,0.6-3.232,1.52-4.648c0.158-0.244,0.414-0.559,0.361-0.779
		c-0.412-1.766,1.018-2.686,1.732-3.93c0.092-0.158,0.287-0.285,0.313-0.447c0.186-1.123,0.928-1.809,1.736-2.529
		c1.461-1.307,2.264-3.143,3.496-4.641c0.35-0.426,0.822-0.785,1.061-1.262c0.596-1.186,1.66-1.928,2.488-2.893
		c2.754-3.207,5.678-6.246,8.744-9.152c1.727-1.637,3.455-3.273,5.219-4.869c1.359-1.23,2.73-2.451,4.17-3.582
		c2.695-2.119,5.387-4.246,8.189-6.217c1.613-1.135,3.305-2.186,4.986-3.232c1.545-0.961,3.256-1.725,4.66-2.768
		c2.434-1.805,5.186-2.963,7.758-4.451c2.285-1.322,4.662-2.559,7.053-3.732c1.957-0.961,3.928-1.955,5.904-2.891
		c1.152-0.545,2.277-1.227,3.609-1.41c1.053-0.146,1.939-0.836,2.936-1.217c2.121-0.813,4.344-1.324,6.42-2.242
		c2.066-0.916,4.307-1.174,6.455-1.781c0.563-0.16,1.094-0.434,1.639-0.656c1.197-0.789,2.559-1.104,3.947-1.309
		c0.379-0.055,0.475,0.273,0.475,0.6c0.467-0.066,1.063,0.299,1.34-0.4c-0.242-0.033-0.512,0.057-0.773-0.232
		c0.957-0.492,1.99-0.41,2.971-0.559c0.057-0.008,0.148,0.215,0.225,0.328c1.281,0.207,2.586,0.113,3.838-0.033
		c3.094-0.363,6.172-0.158,9.186,0.352c2.158,0.365,4.422,0.955,6.105,2.529c1.023,0.955,1.264,2.342,1.152,3.756
		c-0.139,1.752-1.498,2.844-2.328,4.199c-0.441,0.721-1.545,0.338-2.059-0.205c-0.965-1.025-2.279-1.146-3.453-1.445
		c-1.504-0.383-3.123-0.518-4.678-0.449c-3.098,0.141-6.188,0.264-9.27,0.895c-2.26,0.465-4.459,1.174-6.746,1.547
		c-1.973,0.32-3.883,1.045-5.807,1.639c-1.221,0.377-2.408,0.859-3.621,1.26c-2.113,0.699-4.195,1.475-6.246,2.346
		c-3.297,1.4-6.568,2.857-9.787,4.426c-2.102,1.023-4.115,2.232-6.25,3.178c-2.314,1.023-4.504,2.277-6.746,3.426
		c-1.973,1.01-3.654,2.592-5.633,3.584c-2.77,1.389-5.01,3.477-7.518,5.201c-1.24,0.854-2.342,1.932-3.527,2.857
		c-0.803,0.629-1.529,1.359-2.377,1.934c-0.268,0.182-0.539,0.412-0.703,0.686c-0.232,0.391-0.275,0.887-0.018,1.26
		c0.232,0.334,0.625,0.033,0.918-0.035c2.469-0.563,4.785-1.643,7.287-2.113c2.158-0.408,4.305-0.887,6.447-1.379
		c2.896-0.664,5.857-1,8.789-1.365c2.047-0.254,4.021-1.135,6.137-0.828c1.818,0.264,3.648,0.002,5.482,0.117
		c1.537,0.098,3.166-0.246,4.723-0.123c1.826,0.145,3.584-0.238,5.061-0.998c1.537-0.793,3.238-0.516,4.709-1.305
		c0.678-0.361,1.512,0.193,2.26-0.123c0.162-0.068,0.395,0.008,0.541-0.076c1.635-0.959,3.561-0.664,5.289-1.26
		c2.412-0.834,4.969-1.115,7.428-1.754c2.758-0.719,5.561-1.207,8.316-1.893c1.922-0.479,3.938-0.547,5.781-1.166
		c2.471-0.83,5.076-0.924,7.531-1.734c1.684-0.555,3.504-0.486,5.186-1.002c1.984-0.607,4.063-0.768,6.031-1.408
		c0.109-0.035,0.17-0.223,0.252-0.34c-0.852-0.379-1.73-0.143-2.592-0.078c-1.08,0.082-1.43-0.16-1.408-1.268
		c0.012-0.572,0.014-1.145,0.012-1.719c-3.629-0.865-4.482-5.418-2.561-8.02c-0.99-2.412-0.377-5.355,2.613-6.191
		c0.039-2.318,0.389-4.641-0.037-6.957c-0.033-0.178-0.051-0.369-0.027-0.549c0.619-4.65,0.033-9.318,0.209-13.977
		c0.053-1.391,0.547-1.949,1.891-1.729c1.73,0.285,3.432-0.172,5.152-0.053c1.166,0.082,2.34,0.023,3.512,0.023
		c0.33,0,0.666,0.021,0.992-0.021c1.506-0.199,1.461-0.203,1.518,1.287c0.074,1.918-0.461,3.82-0.203,5.723
		c0.219,1.623-0.082,3.217-0.014,4.82c0.039,0.928-0.375,1.262-1.242,1.252c-1.584-0.018-3.17-0.004-4.754-0.004
		c-1.51,0-3.02-0.004-4.531,0.002c-0.363,0-0.746-0.055-1.057,0.211c-0.139,0.117-0.301,0.244-0.23,0.457
		c0.076,0.227,0.287,0.203,0.463,0.18c2.971-0.402,5.955-0.074,8.932-0.182c0.625-0.023,1.254-0.01,1.871-0.092
		c0.68-0.092,0.732,0.207,0.652,0.764c-0.186,1.314-0.242,2.637,0.055,3.945c0.17,0.754-0.205,1.443-0.186,2.186
		c0.002,0.111,0,0.223,0.004,0.334c0.244-0.045,0.49-0.09,0.734-0.135c0.027-0.283,0.061-0.566,0.107-0.85
		c0.082-0.498,0.123-1.061-0.021-1.531c-0.447-1.463,0.113-2.816,0.338-4.205c0.082-0.508,0.543-0.412,0.895-0.414
		c1.842-0.008,3.682-0.004,5.523-0.004v-0.051c1.84,0,3.68,0.037,5.518-0.023c0.545-0.02,0.654,0.16,0.633,0.596
		c-0.063,1.381-0.064,2.762-0.09,4.143c0.355-0.063,0.709-0.123,1.064-0.186c-0.143-0.764-0.424-1.566-0.303-2.363
		c0.121-0.785-0.371-1.713,0.545-2.33c0.072-0.047,0.051-0.396-0.045-0.5c-0.521-0.572-0.34-1.23-0.281-1.877
		c0.299-3.34-0.166-6.678-0.008-10.018c0.063-1.314,0.068-1.354,1.408-1.148c0.107,0.016,0.223,0.041,0.328,0.027
		c2.367-0.311,4.756,0.24,7.123-0.186c0.537-0.096,1.098-0.055,1.645,0.102c0.5,0.145,1.078,0.244,1.518-0.012
		c1.111-0.646,1.061,0.07,1.041,0.801c-0.061,2.426-0.01,4.85-0.168,7.281c-0.176,2.699-0.139,5.418-0.061,8.127
		c0.227-0.033,0.453-0.066,0.678-0.1c-0.004-0.168-0.008-0.336,0.002-0.504c0.098-1.713,0.176-1.797,1.859-1.777
		c2.396,0.027,4.783-0.33,7.201,0.123c0.971,0.18,2.105-0.098,3.15-0.242c0.752-0.104,0.82,0.201,0.842,0.701
		c0.619-0.068,1.238-0.143,1.857-0.205c0.195-0.275,0.5-0.41,1.012-0.402c1.016,0.016,2.031,0.018,3.049,0.021
		c4.033-0.35,8.078-0.594,12.137-0.717c-0.789-0.039-1.578-0.061-2.367,0.033c-0.41,0.049-0.551-0.193-0.68-0.557
		c-0.248-0.701-0.16-1.369,0.016-2.059c0.045-0.18,0.047-0.361,0.035-0.541c-0.402,0.172-0.826,0.293-1.266,0.35
		c-0.057,0.582-0.063,1.172-0.068,1.758c-0.006,0.514-0.125,0.875-0.732,0.846c-1.105-0.051-2.174,0.438-3.293,0.012
		c-1.641,0-3.281-0.002-4.922,0.002c-0.697,0.002-1.387-0.027-2.084,0.137c-1.068,0.252-1.514-0.127-1.586-1.229
		c-0.055-0.848,0.199-1.678,0.238-2.52c-0.416-0.033-0.809-0.123-1.176-0.256c-0.074,0.926-0.285,1.869-0.195,2.82
		c0.072,0.764-0.549,1.262-1.184,1.174c-3.313-0.459-6.605,0.195-9.906,0.076c-0.518-0.018-1.174,0.23-1.453-0.463
		c-0.275-0.684-0.531-1.375,0.174-2.025c0.428-0.395,0.199-0.898-0.047-1.318c-0.205-0.354-0.445-0.682-0.395-1.119
		c0.281-2.4-0.201-4.818,0.197-7.227c0.154-0.928,0.625-1.145,1.426-1.123c2.682,0.072,5.357,0.346,8.043,0.227
		c0.586-0.025,1.133-0.049,1.707-0.307c0.604-0.27,1.027-0.291,1.301-0.076c0.184-0.064,0.373-0.123,0.574-0.174
		c0.502-0.123,0.99-0.273,1.475-0.434c-0.158-0.074-0.311-0.18-0.451-0.336c-0.402-0.449-0.504-1.018-0.145-1.408
		c0.789-0.854,0.553-2.043,0.303-2.684c-0.357-0.912-0.389-1.809-0.414-2.705c-0.281-1.348-0.545-2.699-0.77-4.059
		c-0.051-0.051-0.09-0.117-0.139-0.172c-0.002,0.055-0.004,0.098-0.008,0.156c-0.111,2.719-0.039,5.445-0.045,8.168
		c-0.002,0.441,0,0.885,0,1.326c-0.004,1.402-0.389,1.799-1.832,1.814c-1.545,0.016-3.092,0.004-4.637,0.004
		c-1.582-0.002-3.166-0.018-4.748,0.002c-0.98,0.014-1.561-0.432-1.572-1.41c-0.018-1.234-0.248-2.479,0.258-3.701
		c0.371-0.896,0.178-1.959-0.057-2.773c-0.463-1.623,0.078-3.066,0.293-4.572c0.063-0.432,0.508-0.613,0.953-0.596
		c1.525,0.055,3.051,0.172,4.578,0.168c1.744-0.004,3.488-0.137,5.234-0.168c0.299-0.006,0.525-0.006,0.727,0
		c-0.064-0.229-0.127-0.457-0.156-0.713c-0.133,0.018-0.275,0.029-0.43,0.033c-1.619,0.031-3.24,0.008-4.861,0.008
		c-1.512,0.002-3.021,0.004-4.533,0c-1.336-0.004-1.859-0.619-1.563-1.947c0.311-1.393,0.488-2.729-0.133-4.117
		c-0.209-0.469,0.049-1.145,0.084-1.725c0.066-1.145,0.039-2.275-0.09-3.426c-0.121-1.092,0.707-1.6,1.762-1.617
		c1.863-0.033,3.705-0.281,5.6-0.127c1.143,0.094,2.395,0.063,3.594-0.078c0.498-0.059,0.908,0.006,1.227,0.17
		c0.41-0.674,0.975-1.18,1.633-1.518c0.061-0.209,0.127-0.416,0.189-0.623c-0.041-0.348-0.072-0.697-0.1-1.045
		c-0.377-0.584-0.742-1.182-1.094-1.791c0.023,0.354,0.037,0.711,0.078,1.057c-0.117,0.805,0.201,1.594-0.066,2.402
		c-0.18,0.549-0.357,0.762-1.066,0.736c-3.002-0.104-6.01-0.057-9.014-0.076c-0.438-0.002-0.891-0.012-1.311-0.117
		c-1.318-0.326-1.311-0.592-1.248-1.953c0.055-1.264,0.209-2.537,0.104-3.811c-0.379-0.148-0.744-0.338-1.086-0.572
		c-0.049,1.447-0.199,2.895-0.016,4.35c0.213,1.693-0.205,2.105-1.922,2.107c-2.346,0.004-4.693-0.051-7.035,0.023
		c-1.039,0.035-2.016-0.65-3.117-0.113c-0.34,0.166-0.789-0.326-0.572-0.9c0.408-1.078,0.455-2.139-0.094-3.195
		c-0.094-0.182-0.104-0.441-0.066-0.65c0.383-2.148-0.029-4.295-0.01-6.441c0.014-1.541,0.242-1.922,1.465-1.906
		c-0.324-0.285-0.617-0.621-0.867-1.002c-0.566-0.25-0.785-0.701-0.664-1.389c-0.135-0.414-0.236-0.857-0.295-1.332
		c-0.357-2.887-0.262-5.646,0.203-8.268c-0.227,0.059-0.455,0.121-0.684,0.18c-0.018,1.119-0.039,2.236-0.08,3.354
		c-0.059,1.617,0.094,3.215,0.059,4.826c-0.061,2.814-0.102,5.631-0.088,8.449c0.012,2.381-0.139,4.777-0.152,7.168
		c-0.004,0.748-0.301,1.188-1.111,1.188c-3.141-0.002-6.283,0.008-9.426,0.01c-2.119,0.002-2.268-0.176-2.307-2.221
		c-0.047-2.42,0.25-4.84,0.004-7.258c-0.104-1.006,0.129-1.984,0.26-2.959c0.139-1.023,1.195-0.881,1.771-0.787
		c2.723,0.449,5.418-0.1,8.123-0.061c0.441,0.008,0.848,0.311,1.297,0.123c0.207-0.084,0.439-0.188,0.422-0.447
		c-0.02-0.289-0.266-0.301-0.496-0.301c-3.148-0.01-6.297-0.02-9.445-0.031c-1.758-0.006-2.461-0.809-1.758-2.426
		c0.57-1.313,0.371-2.484,0.109-3.734c-0.023-0.107-0.041-0.219-0.047-0.328c-0.023-0.488-0.016-0.979,0-1.467
		c-0.299,0.068-0.598,0.135-0.896,0.203c-0.074,2.207-0.018,4.424,0.008,6.637c0.01,0.84-0.408,1.113-1.15,1.113
		c-3.652,0-7.303-0.004-10.953,0.002c-0.625,0.002-0.959-0.217-0.953-0.904c0.012-1.295-0.041-2.594-0.041-3.887
		c-0.285,0.066-0.57,0.133-0.855,0.201c-0.014,0.248-0.021,0.498-0.002,0.75c0.059,0.766-0.01,1.531,0.158,2.303
		c0.238,1.107-0.217,1.588-1.338,1.527c-0.473-0.025-0.988-0.061-1.396-0.264c-0.563-0.281-0.973-0.33-1.465,0.131
		c-0.27,0.252-0.818,0.275-1.008-0.043c-0.771-1.305-1.82-0.563-2.59-0.242c-1.199,0.502-2.344,0.373-3.512,0.191
		c-0.514-0.08-0.971-0.59-1.209-1.162c-0.467,0.135-0.932,0.273-1.396,0.412c-0.107,1.145-0.543,1.24-2.266,0.912
		c-0.174-0.033-0.35-0.045-0.523-0.061c-1.047,0.33-2.09,0.67-3.131,1.021c1.301,0,2.6-0.002,3.898-0.002
		c0.221,0,0.471-0.068,0.656,0.012c0.486,0.207,0.971-0.719,1.332-0.068c0.205,0.369,0.068,0.936,0.07,1.414
		c0.004,1.619,0.002,3.238,0.002,4.857c0,1.84,0.012,3.68-0.006,5.521c-0.012,1.26-0.457,1.561-1.662,1.074
		c-0.439-0.178-0.85-0.242-1.281-0.125c-0.547,0.146-0.895-0.061-1.221-0.488c-0.533-0.693-1.164-0.66-1.627,0.098
		c-0.338,0.557-0.68,0.555-1.338,0.619c-0.93,0.094-1.895-0.596-2.822,0.139c-0.588,0.463-1.074,0.211-1.213-0.607
		c-0.135-0.789-0.385-1.559-0.547-2.344c-0.061-0.295-0.09-0.605-0.348-0.781c-0.775-0.523-0.951-1.166-0.469-1.982
		c0.164-0.281,0.027-0.564-0.008-0.854c-0.16-1.305-0.332-2.615-0.32-3.924c-0.289,0.117-0.58,0.236-0.869,0.357
		c0,4.342,0.004,8.686,0.004,13.029c0.355,1.443,0.682,2.898,0.953,4.373c0.303,1.641-0.131,3.033-0.951,4.088v0.703
		c0,1.721-0.158,1.883-1.9,1.885c-3.084,0.004-6.168,0.008-9.254,0c-1.412-0.004-2.014-0.465-1.857-1.842
		c0.258-2.264-0.043-4.52,0.127-6.779c0.078-1.037-0.268-2.088-0.053-3.17c0.184-0.938,0.627-1.289,1.578-1.275
		c0.141,0.002,0.279,0,0.42,0.002c-0.063-0.221-0.125-0.441-0.188-0.662c-1.746-0.002-2.035-0.232-1.896-1.984
		c0.135-1.717,0.074-3.428,0.016-5.141c-0.277-1.223-0.521-2.451-0.713-3.693c-0.004,2.836-0.012,5.672,0.025,8.508
		c0.008,0.607-0.441,1.109-0.209,1.791c0.096,0.279-0.57,0.52-0.979,0.508c-1.58-0.043-3.164-0.051-4.74-0.076
		c-1.826-0.031-3.67,0.08-5.508,0.092c-1.469,0.008-1.629-0.143-1.633-1.646c-0.012-3.613,0.09-7.232-0.033-10.842
		c-0.117-3.457,0.203-6.908,0.004-10.355c-0.166-2.883,0.16-5.758,0.002-8.629c-0.072-1.271-0.111-2.543-0.139-3.814
		c-0.242,0.131-0.486,0.256-0.729,0.383c0.004,0.588,0,1.174,0.006,1.762c0.037,3.408,0.264,6.818,0.186,10.221
		c-0.166,7.105,0.17,14.207,0.047,21.311c-0.018,0.939-0.221,1.357-1.26,1.457c-2.688,0.256-5.363,0.174-8.047,0.053
		c-0.684-0.029-1.365-0.078-2.059,0.055c-1.195,0.229-1.688-0.164-1.695-1.363c-0.023-3.652,0.006-7.303-0.021-10.953
		c-0.006-0.768,0.348-0.922,1.016-0.916c2.986,0.02,5.975,0.008,8.961,0.008c0.221,0,0.443,0.012,0.664-0.004
		c0.352-0.021,0.92,0.088,0.916-0.355c-0.004-0.512-0.582-0.295-0.904-0.297c-3.195-0.018-6.393-0.025-9.588-0.002
		c-0.721,0.006-1.035-0.166-1.074-0.977c-0.188-3.887-0.215-7.775-0.193-11.664c0.004-0.789-0.002-1.578-0.01-2.367
		c-0.295,0.115-0.592,0.223-0.887,0.336c-0.152,0.152-0.383,0.227-0.664,0.252c-4.359,1.648-8.773,3.094-13.162,4.359
		c0.01,0.107,0.018,0.221,0.033,0.348c0.217,1.701-0.773,3.363-0.006,5.09c0.342,0.771-0.139,1.156-1.01,0.959
		c-0.486-0.111-0.998-0.1-1.434-0.488c-0.586-0.523-1.076,0.17-1.611,0.291c-0.301,0.066-0.609,0.461-0.898,0.178
		c-0.867-0.854-1.24-0.164-1.682,0.459c-0.217,0.307-0.537,0.59-0.928,0.426c-0.459-0.193-0.148-0.547-0.064-0.848
		c0.246-0.879-0.393-0.861-0.879-0.725c-0.602,0.172-1.145,0.352-1.805,0.213c-0.455-0.094-0.91,0.242-0.768,0.805
		c0.232,0.908-0.555,1.166-1.01,1.342c-0.686,0.266-0.297-0.488-0.469-0.748c0.301-0.859,0.004-1.697,0-2.537
		c-0.006-0.834,0.875-1.246,0.912-1.758c-0.84,0.195-1.68,0.385-2.521,0.572c-0.098,1.121-0.092,2.279-0.83,3.305
		c-0.439-1.408-0.789-1.658-1.602-1.256c-0.58,0.285-0.504,0.813-0.6,1.316c-0.135,0.709,0.496,1.553-0.125,2.08
		c-0.496,0.42-1.352,0.031-1.998,0.457c-0.262,0.174-0.729-0.043-0.996-0.32c-0.293-0.303-0.066-0.613,0.053-0.918
		c0.135-0.344,0.293-0.686,0.367-1.043c0.146-0.721,0.105-1.328-0.885-1.383c-0.428-0.023-1.002-0.096-1.24-0.375
		c-0.064-0.076-0.121-0.131-0.18-0.189c-0.357,0.068-0.715,0.133-1.072,0.199c-0.045,0.09-0.088,0.188-0.133,0.293
		c-0.119,0.283-0.16,0.834-0.693,0.689c-0.402-0.109-0.813-0.273-1.041-0.633c-2.664,0.488-5.334,0.943-8.01,1.371
		c0.693,0.168,1.242,0.867,1.994,0.896c0.326,0.014,0.061,0.59-0.309,0.615c-0.961,0.063-1.891,0.73-2.914-0.066
		c-0.51-0.398-1.283-0.061-1.914,0.166c-0.389,0.141-0.813,0.299-1.102-0.125c-0.258-0.381-0.082-0.635,0.205-0.861
		c-1.658,0.246-3.318,0.484-4.979,0.713c0.014,0.266-0.047,0.527-0.299,0.725c-0.385,0.301-0.781,0.08-1.137-0.115
		c-0.246-0.137-0.492-0.252-0.742-0.311c-0.314,0.041-0.629,0.086-0.943,0.127c-0.025,0.014-0.051,0.023-0.078,0.041
		c-0.207,0.129-0.389,0.123-0.551,0.039c-9.066,1.182-18.168,2.137-27.252,3.049v41.053c10.391-3.367,21.199-4.844,32.039-6.211
		c3.516-2.082,6.857-4.424,10.506-6.322c4.428-2.303,9.008-4.24,13.66-6.037c4.898-1.893,7.521,4.146,5.135,7.705
		c1.615-0.205,3.236-0.393,4.861-0.551c2.082-0.205,3.477,0.715,4.201,2.064c3.326,0.283,6.607,0.838,9.795,1.781
		c4.492,1.328,5.057,8.639,0,9.643c-8.191,1.625-16.408,0.764-24.662,1.512c-8.588,0.777-17.045,2.555-25.668,3
		c-0.42,0.021-0.809-0.023-1.18-0.098c-0.055,0.021-0.109,0.047-0.164,0.068c-5.59,2.176-11.354,3.805-17.109,5.461
		c-3.719,1.559-7.488,2.975-11.414,3.885v53.32c7.668-1.256,15.156-3.164,22.656-5.139c0.598-1.768,2.111-3.182,4.545-3.166
		c2.375,0.016,4.727,0.096,6.996,0.846c4.531,1.498,5.006,8.367,0,9.643c-11.441,2.916-22.617,5.92-34.197,7.789v95.029
		c0.049,0.004,0.088,0.008,0.141,0.012c1.969,0.18,3.947,0.307,5.91,0.553c3.66,0.457,8.389,0.869,10.533,4.383
		c2.609,4.279-0.438,8.551-4.533,10.107c-0.104,0.039-0.209,0.066-0.314,0.104c-0.914,0.848-2.172,1.361-3.535,1.535
		c-2.557,0.326-5.111,0.676-7.668,1c-0.184,0.023-0.357,0.021-0.533,0.021v55.787c1.357-0.354,2.24-1.432,3.152-2.332
		c0.758-0.748,1.689-1.176,2.479-1.846c1.949-1.656,4.186-2.973,6.145-4.615c1.617-1.357,3.605-1.992,5.322-3.146
		c1.049-0.707,2.068-1.482,3.229-2.074c1.258-0.643,2.641-1.09,3.766-2.008c1.604-1.307,3.652-1.775,5.408-2.789
		c2.543-1.471,5.355-2.344,7.953-3.711c1.664-0.877,3.609-1.213,5.422-1.813c1.926-0.637,3.912-1.033,5.857-1.574
		c1.438-0.398,2.885-0.598,4.342-0.627c3.311-0.068,6.635-0.205,9.926,0.035c2.357,0.17,4.871,0.115,6.932,1.699
		c0.578,0.443,1.357,0.398,1.979,0.893c1.133,0.9,1.721,2.172,2.529,3.285c0.34,0.471,0.209,1.146-0.037,1.707
		c-0.727,1.654-1.422,3.324-2.578,4.752c-0.389,0.48-0.594,0.598-1.08,0.037c-0.768-0.883-1.689-1.621-2.418-2.563
		c-0.594-0.766-1.631-1.021-2.477-1.084c-2.377-0.176-4.633-1.178-7.035-1.018c-2.137,0.143-4.326,0.172-6.383,0.689
		c-1.789,0.451-3.656,0.42-5.381,1.031c-1.766,0.625-3.576,1.068-5.355,1.631c-0.588,0.186-1.227,0.42-1.66,0.826
		c-0.674,0.633-1.475,0.682-2.27,0.756c-0.693,0.064-1.244,0.455-1.813,0.725c-3.059,1.455-6.188,2.828-9.031,4.641
		c-1.096,0.697-2.283,1.027-3.346,1.676c-1.629,0.996-3.41,1.816-4.896,2.951c-1.326,1.014-2.734,1.764-4.17,2.525
		c-0.307,0.162-0.35,0.455-0.521,0.684c-0.447,0.604-0.813,1.115-1.775,1.17c-1.115,0.066-1.781,1.209-2.631,1.885
		c-1.748,1.383-3.387,2.906-5.109,4.322c-1.076,0.883-1.785,2.113-2.926,2.936c-0.43,0.309-0.467,0.893-0.459,1.428
		c0.014,0.842,0.004,1.684-0.195,2.529c0-0.682,0.016-1.361-0.006-2.043c-0.016-0.559-0.217-0.941-0.887-0.727v7.303
		c4.584-0.018,9.168-0.037,13.752-0.055c-0.318-0.809-0.678-1.57-1.139-2.332c-0.828-1.369-1.475-2.924-1.113-4.66
		c0.34-1.635,1.326-2.584,2.945-2.934c0.781-0.168,1.506-0.592,2.277-0.822c2.77-0.828,5.547-1.633,8.326-2.428
		c3.615-1.031,7.33-1.34,11.064-1.604c2.859-0.201,5.707-0.129,8.518,0.291c1.816,0.27,3.652,0.686,5.334,1.531
		c0.098,0.049,0.205,0.146,0.295,0.131c2.027-0.33,4.041,0.281,6.119-0.127c2.975-0.584,5.996-1.006,9.006-1.441
		c2.412-0.35,4.844-0.721,7.227-1.332c1.357-0.348,2.824-0.244,4.225-0.459c1.113-0.172,2.211-0.484,3.301-0.758
		c1.398-0.352,2.77-0.486,4.203-0.555c1.393-0.068,2.811-0.48,4.121-0.992c0.773-0.301,1.529-0.113,2.314-0.365
		c1.861-0.598,3.861-0.723,5.803-1.045c2.035-0.338,4.121-0.424,6.092-1.189c0.791-0.307,1.746-0.34,2.611-0.283
		c1.338,0.088,2.605-0.133,3.869-0.486c1.545-0.434,3.152-0.068,4.715-0.404c0.6-0.129,1.221-0.188,1.83-0.34
		c1.979-0.498,4.07-0.854,6.023-0.803c1.455,0.037,3.643-0.02,4.424,2.105c0.09,0.242,0.33,0.572,0.16,0.707
		c-1.072,0.842-0.793,2.482-2.023,3.26c-0.525,0.332-0.871,0.977-1.248,1.516c-0.305,0.438-0.688,0.725-1.201,0.605
		c-1.846-0.424-3.428,0.641-5.154,0.885c-0.721,0.104-1.449,0.205-2.174,0.309c-2.938,0.42-5.867,1.039-8.82,1.172
		c-2.223,0.102-4.25,0.996-6.451,1.07c-1.533,0.053-3.115,0.145-4.574,0.566c-2.785,0.805-5.684,0.902-8.492,1.609
		c-2.428,0.613-4.947,1.01-7.471,1.287c-2.027,0.223-4.029,0.73-6.027,1.178c-1.059,0.238-2.123,0.055-3.188,0.213
		c-1.488,0.223-2.891,0.744-4.354,1.045c-1.967,0.406-3.979,0.471-5.939,0.869c-1.102,0.225-2.244,0.453-3.242,0.938
		c-1.715,0.836-2.771,2.346-3.494,4.09c8.26,0.01,16.521,0.027,24.783,0.029c25.299,0.002,50.598-0.004,75.896-0.006
		c1.564,0,1.564,0,1.564-1.557c0-3.873-0.168-7.754,0.041-11.615c0.037-0.713,0.045-1.424,0.064-2.137
		c-1.061-7.006-1.801-14.039-2.053-21.045c-0.229-6.32-0.49-14.229,2.623-20.119c-0.008-0.104-0.012-0.207-0.012-0.314
		c-0.004-2.182-0.082-4.367,0.014-6.543c-3.426,1.102-5.662-1.428-5.936-4.277c-3.35-1.359-4.848-6.344-0.828-8.887
		c0.49-0.309,0.982-0.623,1.475-0.936c0.025-0.77,0.246-1.547,0.732-2.27c0.049-0.074,0.102-0.143,0.152-0.215
		c-2.244,0.736-5.143,0.021-6.084-2.17c-1.189-2.773-3.006-5.244-3.877-8.148c-0.963-3.203,0.363-7.096,1.877-9.898
		c1.254-2.32,3.48-4.35,5.568-6.436c-3.061-1.375-5.053-5.238-1.785-7.91c0.033-0.027,0.068-0.051,0.102-0.078
		c-0.512-1.885,0.029-4.021,2.244-5.369c0.766-0.467,1.545-0.906,2.322-1.348c1.236-0.869,2.666-1.627,4.148-2.244
		c1.328-0.678,2.67-1.326,4.02-1.961c1.828-4.584,5.506-8.469,10.082-10.221c-0.016-0.488-0.035-0.977-0.049-1.465
		c-0.074-2.525-0.152-5.051-0.236-7.576c-0.023-0.723,0.129-1.014,1.014-0.912c3.805,0.438,7.625,0.371,11.443,0.131
		c0.422-0.027,0.473,0.094,0.453,0.488c-0.047,0.916-0.016,1.838-0.016,2.756h-0.064v1.326c0,1.646-0.381,2.381-1.385,3.109
		c1.348-0.232,2.684-0.516,4-0.883c0.541-0.252,1.098-0.479,1.65-0.711c-0.291-0.395-0.529-0.82-0.709-1.27
		c-0.098,0.055-0.197,0.109-0.295,0.164c-0.592,0.338-0.955,0.303-1.146-0.393c-0.186-0.67-0.373-1.342-0.541-1.941
		c0.004-1.803,0.684-2.406,2.258-2.35c0.197-0.301,0.439-0.578,0.727-0.828c-0.547-0.002-1.096,0-1.643-0.006
		c-1.59-0.02-2.203-0.799-1.867-2.32c0.17-0.766-0.211-1.447-0.168-2.186c0.047-0.826,0.074-1.582,0.496-2.395
		c0.193-0.373-0.615-1.33-0.502-2.178c0.078-0.58,0.01-1.178,0.016-1.768c0.012-1.154,0.707-1.703,1.9-1.621
		c0.611,0.043,1.232-0.105,1.852-0.129c2.777-0.102,5.555,0.191,8.332,0.002c0.602-0.041,0.754,0.291,0.748,0.82
		c-0.014,1.326-0.004,2.652-0.004,4.244c-0.092,1.422,0.18,3.121-0.201,4.799c-0.029,0.131-0.033,0.27-0.033,0.406
		c0.494-0.086,0.988-0.176,1.482-0.262c-0.029-0.559-0.148-1.119-0.385-1.68c-0.311-0.738,0.322-1.373,0.273-2.131
		c-0.113-1.783,0.049-3.57,0.178-5.355c0.049-0.688,0.277-0.889,0.953-0.801c2.414,0.318,4.836,0.209,7.256,0.066
		c1.051-0.063,2.104-0.096,3.156-0.104c0.631-0.002,0.945,0.182,0.883,0.998c-0.129,1.646-0.102,3.311-0.043,4.965
		c0.037,1.074-0.418,1.664-1.414,1.908c-0.508,0.125-1.004,0.277-1.496,0.443c4.119-0.814,8.197-1.775,12.152-3.148
		c1.186-0.41,2.354-0.932,3.516-1.498c-0.273,0.053-0.641,0.08-1.164,0.123c-1.16,0.096-2.221,0.711-3.34,1.051
		c-1.813,0.551-3.771,0.543-5.48,1.504C491-7.963,490.473-8.1,490.031-8.1c-0.365,0-0.521-0.152-0.453-0.555
		c0.24-1.377-0.084-2.762,0.049-4.152c0.137-1.451,0.707-1.697,1.74-1.609c3.016,0.252,6.027,0.047,9.039,0.119
		c1.641,0.039,1.643,0.008,1.643,1.709c0,0.836-0.01,1.26-0.199,1.498c0.336-0.168,0.672-0.34,1.008-0.514
		c-0.094-0.154-0.105-0.395-0.051-0.703c0.355-1.979,0.33-1.979,2.359-1.984c1.057-0.002,2.115-0.006,3.172-0.01
		c0.557-0.236,1.115-0.455,1.676-0.646c-1.754,0-3.506-0.004-5.26-0.006c-1.535-0.002-1.818-0.281-1.82-1.789
		c-0.006-2.574,0.002-5.146-0.004-7.719c-0.002-0.764,0.236-1.49,0.131-2.291c-0.104-0.789,0.506-1.117,1.322-1.037
		c3.104,0.311,6.221,0.199,9.334,0.221c0.146,0,0.295-0.004,0.441-0.016c0.195-0.016,0.389-0.084,0.402-0.299
		c0.014-0.219-0.176-0.344-0.365-0.32c-0.732,0.086-1.428-0.17-2.182-0.111c-2.664,0.209-5.334,0.033-7.996-0.164
		c-0.717-0.053-1.264-1.145-1.035-2.27c0.232-1.143,0.139-2.275,0.162-3.412c0.016-0.74,0.01-1.473,0.303-2.172
		c0.197-0.469,0.174-0.912-0.102-1.369c-0.324-0.537-0.26-1.148-0.1-1.717c0.463-1.639,0.941-1.951,2.715-1.867
		c2.574,0.121,5.15,0.264,7.73,0.131c0.266-0.014,0.512-0.047,0.588-0.383c-0.295-0.328-0.686-0.17-1.031-0.186
		c-2.166-0.102-4.346,0.195-6.502-0.215c-0.211-0.041-0.443-0.006-0.66,0.027c-2.037,0.318-2.76-0.143-2.637-2.18
		c0.113-1.883,0.115-3.791-0.008-5.627c-0.102-1.494,0.297-2.832,0.35-4.246c0.031-0.824,0.494-0.873,1.102-0.809
		c3.563,0.379,7.129,0.252,10.693,0.072c0.674-0.035,0.617,0.359,0.621,0.758c0.01,1.365-0.002,2.729,0.012,4.094
		c0.002,0.232-0.104,0.609,0.244,0.637c0.408,0.031,0.395-0.367,0.398-0.646c0.018-0.959-0.08-1.93,0.039-2.873
		c0.113-0.895,0.248-1.875,1.301-2.277v-0.443c-0.578,0.063-0.82-0.16-0.932-0.773c-0.326-1.797-0.043-3.602-0.162-5.391
		c-0.111-1.682,0.342-3.34,0.078-5.023C517.066-67.395,517.521-67.945,518.201-68.285z M451.02-72.947
		c0.545-0.053,1.084-0.172,1.582-0.436c0.258-0.137,0.539-0.318,0.813-0.324c1.545-0.037,3.021-0.404,4.52-0.734
		c0.773-0.17,1.527-0.148,2.268-0.619c1.006-0.643,1.904-0.027,1.766,1.16c-0.156,1.357-0.254,2.697-0.125,4.063
		c0.068,0.709-0.512,0.885-1.123,0.885h-5.305c-1.621,0.002-3.246-0.049-4.863,0.02c-0.961,0.041-1.344-0.277-1.504-1.248
		C448.727-72.133,449.119-72.758,451.02-72.947z M464.086-149.529c-0.125-0.293,0.438-0.615,0.889-0.633
		c2.273-0.082,4.533-0.367,6.826-0.146c1.264,0.123,2.566-0.051,3.842-0.191c0.619-0.068,1.004,0.035,0.91,0.684
		c-0.379,2.605-0.125,5.223-0.152,7.832c-0.01,1.164-0.311,2.314-0.057,3.5c0.152,0.707-0.217,1.197-1.064,1.16
		c-0.771-0.033-1.547-0.008-2.32-0.008c-2.494,0.133-4.986-0.002-7.48-0.002c-1.385,0-1.877-0.332-1.678-1.66
		c0.348-2.324-0.346-4.67,0.275-6.967c0.027-0.1,0.055-0.275,0.004-0.313C462.637-147.34,464.557-148.414,464.086-149.529z
		 M464.242-136.242c0.205-0.232,0.461-0.408,0.768-0.373c2.219,0.252,4.439-0.221,6.674,0.115c1.205,0.182,2.504-0.008,3.721-0.236
		c0.918-0.172,0.996,0.17,0.977,0.887c-0.088,3.207-0.154,6.414-0.225,9.623c-0.006,0.258-0.01,0.516,0.002,0.773
		c0.063,1.514-0.205,1.84-1.758,1.834c-2.563-0.01-5.127,0.184-7.689,0.006c-0.664,0-1.328,0.025-1.99-0.004
		c-1.143-0.051-1.801-1.092-1.129-1.984c0.643-0.854,0.406-1.541,0.035-2.305c-0.111-0.229-0.373-0.438-0.287-0.691
		c0.408-1.203-0.189-2.479,0.279-3.668c0.111-0.281-0.029-0.498-0.121-0.734C463.016-134.248,463.41-135.295,464.242-136.242z
		 M449.834-149.736c0.096-0.582,0.506-0.652,0.979-0.65c1.215,0.002,2.43,0,4.223,0c1.287,0.01,3.156-0.061,5.014,0.182
		c0.072,0.01,0.146,0.014,0.221,0.01c2.385-0.104,2.424-0.102,2.373,2.285c-0.045,2.164,0.08,4.326-0.104,6.5
		c-0.072,0.846-0.168,1.789,0.033,2.699c0.178,0.789-0.158,1.299-1.094,1.396c-1.711,0.176-3.404,0.125-5.117,0.02
		c-1.336-0.084-2.691-0.07-4.037,0.15c-1.721,0.281-2.637-0.693-2.537-2.412c0.07-1.201-0.063-2.426-0.055-3.625
		C449.746-145.363,449.48-147.559,449.834-149.736z M449.604-134.688c0.018-1.176,0.605-1.674,1.752-1.773
		c2.373-0.209,4.738,0.041,7.107,0.018c1.201-0.014,2.379-0.336,3.611-0.113c0.553,0.1,0.631,0.277,0.543,0.668
		c-0.299,1.318-0.02,2.627-0.023,3.938c-0.008,2.459-0.188,4.92-0.182,7.387c0.002,0.678-0.471,0.93-1.113,0.955
		c-3.592,0.143-7.184,0.18-10.775-0.004c-0.42-0.021-0.861-0.043-0.865-0.611c-0.012-2.086-0.004-4.174-0.004-6.262H449.6
		C449.6-131.887,449.586-133.287,449.604-134.688z M449.584-121.684c0.18-0.76,0.615-1.068,1.422-1.057
		c2.998,0.041,5.994-0.154,8.992,0.01c0.293,0.016,0.59-0.025,0.883-0.004c0.471,0.035,0.99-0.666,1.295-0.201
		c0.271,0.418,0.203,1.107,0.164,1.67c-0.246,3.455-0.166,6.912-0.035,10.365c0.035,0.932-0.234,1.266-1.154,1.244
		c-1.693-0.041-3.389-0.012-5.082-0.012c-1.658-0.002-3.318-0.055-4.973,0.018c-0.953,0.043-1.439-0.375-1.449-1.229
		c-0.02-1.863-0.25-3.736,0.061-5.592c0.074-0.438-0.057-0.789-0.143-1.178C449.268-118.994,449.266-120.34,449.584-121.684z
		 M436.105-162.359c0.012-1.441,0.34-1.711,1.777-1.756c2.021-0.063,4.037,0.043,6.068-0.148c1.49-0.143,3.029,0.186,4.551-0.039
		c0.479-0.072,0.664,0.229,0.646,0.67c-0.072,2.021-0.004,4.045-0.082,6.068c-0.057,1.475-0.363,2.971,0.01,4.475
		c0.352,1.416-0.227,2.033-1.705,2.037c-1.031,0.002-2.064,0-3.098,0c-2.277,0-4.555,0.004-6.832-0.002
		c-1.223-0.004-1.539-0.32-1.16-1.438c0.268-0.791-0.188-1.414-0.184-2.123C436.105-157.197,436.086-159.779,436.105-162.359z
		 M438.055-150.236c1.525,0.367,3.398-0.168,5.309-0.031c1.57,0.113,3.221-0.07,4.836-0.127c0.723-0.025,0.885,0.16,0.809,0.955
		c-0.148,1.572-0.068,3.166-0.072,4.75c-0.006,1.77,0.002,3.539-0.002,5.309c-0.002,2.041-0.014,1.92-2.086,2.078
		c-2.793,0.215-5.588-0.09-8.373,0.186c-0.555,0.057-1.094-0.055-1.635-0.195c-0.422-0.109-0.77-0.4-0.678-0.742
		c0.404-1.506-0.455-2.9-0.168-4.48c0.34-1.871-0.066-3.873-0.107-5.82C435.854-149.898,436.143-150.166,438.055-150.236z
		 M435.947-131.832c-0.061-1.203,0.352-2.289,0.369-3.443c0.012-0.814,0.326-1.193,1.199-1.182c2.488,0.031,4.982,0.098,7.463-0.053
		c0.934-0.057,1.877,0.148,2.818-0.117c0.588-0.166,1.332-0.086,1.096,0.82c-0.271,1.047,0.033,2.043,0.016,3.057
		c-0.051,2.756-0.24,5.506-0.221,8.268c0.008,1.254-1.098,0.85-1.795,1.002c-2.475,0.461-4.959-0.43-7.434,0.201
		c-0.84,0.215-1.82-0.055-2.725-0.182c-0.791-0.109-1.104-0.57-0.654-1.324c0.203-0.338,0.313-0.689,0.184-1.051
		C435.563-127.811,436.049-129.836,435.947-131.832z M434.91-137.904c-0.461,0.391-0.955,1.137-1.646,0.133
		c-0.285-0.412-0.797-0.254-1.129,0.166c-0.314,0.398-0.674,0.553-1.137,0.205c-0.217-0.164-0.512-0.217-0.738-0.107
		c-1.588,0.77-3.248,0.289-4.877,0.33c-0.621,0.014-1.24,0.051-1.861,0.061c-0.211,0.004-0.551,0.037-0.551-0.225
		c-0.002-0.768,0.768-1.191,0.932-1.941c0.088-0.393,0.564-0.059,0.861,0.037c0.887,0.279,1.908-0.152,2.34-0.984
		c0.125-0.24,0.217-0.504-0.01-0.711c-0.254-0.229-0.469-0.027-0.672,0.139c-1.072,0.875-2.176,0.906-3.148-0.209
		c-0.559-0.641-0.537-1.549-0.031-2.459c0.598-1.074,0.125-2.381,0.436-3.57c0.207-0.799,0.422-1.396,1.387-1.365
		c0.297,0.01,0.756,0.121,0.762-0.379c0.006-0.434-0.389-0.467-0.73-0.492c-0.252-0.02-0.502-0.049-1.09-0.104
		c0.662-0.453,0.971-0.92,1.563-0.492c0.439,0.32,0.754-0.42,1.223-0.16c0.162,0.09,0.457-0.16,0.594,0.1
		c0.115,0.223-0.012,0.475-0.199,0.58c-1.381,0.777-0.209,1.688-0.143,2.535c0.012,0.148,0.109,0.313,0.279,0.266
		c0.117-0.031,0.299-0.191,0.291-0.275c-0.102-0.928,0.992-1.572,0.563-2.605c-0.193-0.465,0.156-0.73,0.672-0.734
		c1.867-0.012,3.738,0.057,5.6-0.199c0.418-0.057,0.738,0.188,0.74,0.633c0.018,2.766,0.016,5.531,0.012,8.295
		c0,0.271-0.268,0.662-0.406,0.449c-0.693-1.059-1.734,0.295-2.475-0.426c-0.16-0.156-0.461,0.281-0.682,0.465
		c-0.236,0.201-0.482,0.371-0.789,0.164c-0.301-0.203-0.275-0.49-0.146-0.785c0.088-0.203,0.199-0.4,0.25-0.613
		c0.086-0.348,0.043-0.709-0.357-0.809c-0.436-0.109-0.365,0.301-0.49,0.549c-0.287,0.561-0.223,1.604-1.422,1.049
		c-0.426-0.197-0.916,0.82-0.615,1.438c0.275,0.564,0.635,1.063,0.387,1.748c-0.07,0.193,0.084,0.479,0.314,0.518
		c0.34,0.059,0.385-0.24,0.463-0.494c0.264-0.863,1.23-1.328,1.898-0.754c0.715,0.617,1.1,0.475,1.586-0.168
		c0.17-0.227,0.455-0.352,0.746-0.326c0.219,0.252-0.02,0.455,0.012,0.662c0.021,0.137,0.041,0.334,0.133,0.391
		c0.188,0.115,0.336-0.037,0.445-0.195c0.041-0.061,0.066-0.139,0.119-0.186c0.273-0.238,0.416-0.961,0.838-0.609
		C435.424-139.027,435.383-138.307,434.91-137.904z M422.893-162.07c-0.311-1.369,0.41-1.988,1.816-1.992
		c3.07-0.006,6.148,0.084,9.215-0.174c0.85-0.072,1.311,0.154,1.303,1.127c-0.033,3.723-0.018,7.447-0.01,11.17
		c0,0.688-0.082,1.154-0.996,0.93c-1.262-0.311-2.623-0.262-3.857-0.236c-0.826,0.018-1.824-0.473-2.66,0.127
		c-0.066,0.047-0.225,0.016-0.316-0.027c-0.363-0.168-0.258-0.459-0.197-0.758c0.125-0.629-0.041-1.395,0.715-1.73
		c0.436-0.193,0.672,0.135,0.832,0.502c0.059,0.131,0.133,0.252,0.289,0.549c0.422-1.75,0.111-2.236-1.307-2.316
		c-0.463-0.025-0.672,0.359-0.752,0.689c-0.248,1.047-1.381,1.449-1.701,2.469c-0.119,0.379-0.721,0.348-1.076,0.082
		c-0.408-0.305-0.197-0.641,0.07-0.939c0.172-0.191,0.352-0.379,0.5-0.588c0.695-0.973,0.631-1.143-0.5-1.412
		c-0.711-0.168-1.35-1.271-1.15-1.982c0.039-0.137,0.127-0.377,0.086-0.404c-1.252-0.797-0.33-1.711-0.158-2.586
		C423.205-160.414,423.082-161.234,422.893-162.07z M396.184-124.029c-0.084,0.34-0.336,0.557-0.707,0.592
		c-0.348-0.061-0.523-0.275-0.496-0.613c0.039-0.477,0.412-0.438,0.742-0.432C396.012-124.479,396.268-124.367,396.184-124.029z
		 M402.123-123.383c-0.057,0.182-0.289,0.197-0.479,0.191c-0.189-0.014-0.453-0.072-0.408-0.264
		c0.145-0.586,0.334-1.164,0.568-1.721c0.082-0.199,0.371-0.225,0.59-0.133c0.078,0.033,0.18,0.174,0.164,0.244
		C402.432-124.5,402.299-123.934,402.123-123.383z M394.787-135.904c0.014-0.254,0.289-0.281,0.525-0.281
		c2.021-0.01,4.041-0.021,6.063-0.039c1.939-0.018,3.881-0.031,5.822-0.076c0.305-0.008,0.432-0.059,0.463,0.346
		c0.23,3.012,0.047,6.018-0.004,9.127c-0.777-0.869-1.281-0.133-1.789,0.172c-0.65,0.389-1.258,1.176-1.717-0.207
		c-0.16-0.482-0.621-0.221-0.959-0.119c-0.529,0.16-0.953,0.533-1.633,0.158c-0.439-0.244-1.072,0.203-1.402,0.658
		c-0.256,0.354-0.156,0.748,0.201,1.082c0.523,0.486,0.104,1.047-0.006,1.541c-0.096,0.428-0.584,0.352-0.947,0.373
		c-1.018,0.059-2.002,0.043-2.633-1.111c0.5-0.105,0.963-0.168,1.234-0.75c0.684-1.463,0.689-1.615-0.818-2.24
		c-0.809-0.336-1.373-0.65-0.988-1.752c0.295-0.848-0.162-1.158-1.24-0.93c0.547-0.777,0.293-1.363-0.039-2.135
		C394.414-133.26,394.715-134.623,394.787-135.904z M381.188-150.082c0.605-0.787,1.52,0.063,2.291-0.086
		c1.871-0.359,3.768,0.096,5.643-0.205c1.568-0.25,3.135,0.521,4.717,0.057c0.205-0.061,0.359,0.111,0.313,0.33
		c-0.311,1.475,0.115,2.93,0.102,4.393c-0.023,2.484-0.123,4.969-0.209,7.453c-0.035,0.965-1.082,1.42-1.926,0.795
		c-0.41-0.303-0.602-0.521-1.049-0.004c-0.42,0.482-1.102,0.248-1.67,0.166c-0.295-0.043-0.426-0.299-0.301-0.592
		c0.127-0.297,0.238-0.686,0.689-0.525c0.305,0.109,0.705,0.488,0.895,0.217c0.535-0.756,1.502-0.9,2.049-1.6
		c0.201-0.258,0.135-0.479-0.068-0.686c-0.453-0.461-0.947-0.914-1.641-0.553c-1.563,0.814-2.379-0.391-3.328-1.203
		c-0.217-0.186-0.326-0.52-0.684-0.455c-0.418,0.076-0.457,0.422-0.486,0.764c-0.082,0.91-0.889,1.717-0.334,2.738
		c0.121,0.223-0.248,0.52-0.557,0.57c-0.385,0.063-0.512-0.256-0.584-0.539c-0.148-0.582-0.076-1.447-0.977-1.281
		c-0.855,0.156-0.439,0.979-0.547,1.553c-0.168,0.906,0.082,1.061,0.896,0.824c0.338-0.1,0.713,0.055,0.693,0.488
		c-0.02,0.416-0.414,0.33-0.691,0.348c-0.537,0.035-1.059-0.248-1.619,0.055c-0.42,0.227-0.486-0.176-0.471-0.479
		c0.057-1.17,0.697-2.236,0.582-3.449c-0.025-0.258,0.367-0.318,0.631-0.32c0.465-0.002,0.842-0.123,0.734-0.688
		c-0.104-0.553-0.518-0.197-0.803-0.223c-0.721-0.064-1.201,0.117-1.242,0.971c-0.016,0.285-0.16,0.738-0.588,0.66
		c-0.377-0.07-0.389-0.486-0.422-0.814c-0.1-0.984,0.264-1.799,0.949-2.475c0.227-0.223,0.453-0.432,0.275-0.746
		c-0.172-0.309-0.439-0.166-0.666-0.023c-0.389,0.244-0.479,0.023-0.594-0.316c-0.305-0.902-0.139-1.828-0.201-2.795
		C381.094-148.504,380.689-149.436,381.188-150.082z M367.348-149.418c0.066-0.951,0.371-1.02,1.078-0.971
		c0.33,0.021,0.664,0.004,0.996,0.004c1.992,0.246,4.008,0.262,5.992,0.154c1.418-0.076,2.84,0.174,4.248-0.1
		c0.523-0.1,0.85,0.039,0.75,0.709c-0.295,1.969,0.203,3.947,0.01,5.908c-0.131,1.332,0.32,2.645,0.096,3.93
		c-0.402,2.297-0.891,2.869-3.076,2.721c-2.531-0.172-5.084-0.047-7.625-0.051c-1.434-0.002-2.174-0.66-2.314-2.115
		c-0.098-1.01-0.25-2.029-0.201-3.035C367.418-144.648,367.182-147.027,367.348-149.418z M329.629-166.229
		c-0.051,0.23-0.209,0.541-0.385,0.449c-0.867-0.455-2.035-0.004-2.732-0.922c-0.129-0.168-0.383-0.322-0.215-0.553
		c0.082-0.115,0.316-0.152,0.486-0.166c0.584-0.043,1.184,0.078,1.684-0.17C329.174-167.602,329.771-166.859,329.629-166.229z
		 M437.469-43.645c0.234,1.055-0.119,1.441-1.283,1.129c0.248-0.457,0.607-0.691,0.588-1.154c-0.014-0.363-0.133-0.957,0.5-0.865
		C437.871-44.447,437.402-43.947,437.469-43.645z M438.461-34.617c-0.707-0.664-0.859-1.773-0.361-2.471
		c0.342-0.48,0.676-0.484,0.842,0.076c0.195,0.658,0.27,1.352,0.387,1.973c0.012,0.332-0.047,0.594-0.316,0.697
		C438.768-34.246,438.617-34.471,438.461-34.617z M446.877-28.623c-0.5,0.047-1.502-0.074-1.688-1.027
		c-0.033-0.17-0.02-0.406-0.26-0.428c-0.281-0.027-0.359,0.213-0.42,0.422c-0.15,0.537-0.447,0.617-1.027,0.682
		c-1.176,0.133-2.338-0.082-3.5,0.055c-0.496,0.057-0.803-0.102-0.787-0.637c0.008-0.287-0.365-0.695,0.158-0.836
		c0.428-0.113,0.889-0.125,1.125,0.408c0.088,0.201,0.01,0.613,0.426,0.469c0.285-0.098,0.291-0.41,0.275-0.666
		c-0.027-0.465-0.09-0.928-0.158-1.584c0.6,0.408,0.799,0.865,0.969,1.275c0.223,0.535,0.539,0.721,1.086,0.719
		c0.553,0,0.914-0.172,1.051-0.744c0.16-0.666,0.965-1.041,0.822-1.863c-0.115-0.668-0.254-1.021-1.051-0.578
		c-1.529,0.854-1.588,0.787-2.082-0.965c-0.16-0.57-0.186-1.197-1.166-1.117c-0.584,0.049-0.342-0.68-0.248-1.057
		c0.154-0.609,0.938-1.238-0.311-1.652c-0.395-0.133,0.098-1.238,0.734-1.262c1.08-0.043,1.5-0.508,1.533-1.553
		c0.018-0.49,0.475-0.691,0.969-0.721c1.355-0.082,2.713-0.139,4.059-0.287c0.527-0.057,0.672,0.102,0.658,0.564
		c-0.066,2.35,0.088,4.703-0.094,7.057c-0.096,1.234,0.01,2.49,0.105,3.729C448.127-29.289,447.449-28.676,446.877-28.623z
		 M450.002-14.734c2.768,0.082,5.535,0.174,8.305,0.213c0.689,0.01,1.398-0.092,2.072-0.254c0.799-0.193,1.162,0.137,1.148,0.861
		c-0.027,1.617-0.027,3.236-0.072,4.852c-0.043,1.559,0.064,3.137,0.043,4.709c-0.006,0.441,0.035,0.883,0.041,1.324
		c0.01,0.711-0.332,1.143-1.061,1.121c-2.721-0.084-5.447,0.211-8.166-0.174c-0.795-0.113-1.619-0.012-2.43-0.045
		c-1.002-0.043-1.314-0.51-1.246-1.473c0.117-1.688,0.244-3.387-0.084-5.063c-0.156-0.799,0.197-1.52,0.178-2.297
		c-0.043-1.953-0.107-3.914,0.006-5.861c0.182-3.109-0.188-6.207-0.033-9.314c0.08-1.605,0.059-1.844,1.643-1.824
		c2.861,0.037,5.73-0.299,8.584,0.129c0.217,0.031,0.441,0.039,0.66,0.041c2.135,0.029,1.947-0.34,1.955,2.059
		c0.006,1.365,0.002,2.729,0.002,4.094c-0.002,1.658-0.025,3.318,0.008,4.977c0.016,0.771-0.156,1.176-1.041,1.336
		c-1.088,0.197-2.113-0.01-3.172-0.043c-2.43-0.082-4.865-0.035-7.299-0.023c-0.293,0.002-0.779-0.137-0.764,0.359
		C449.291-14.641,449.727-14.742,450.002-14.734z M461.57-34.201c-0.119,1.465-0.092,2.953-0.002,4.422
		c0.066,1.076-0.557,1.322-1.34,1.246c-3.201-0.316-6.406-0.066-9.607-0.137c-1.838-0.039-1.904-0.072-1.904-1.959
		c0-0.701,0.002-1.402,0.002-2.102v-1.992c-0.002-1.512,0.031-3.023-0.016-4.533c-0.025-0.795,0.371-1.4,0.682-2.059
		c0.088-0.188,0.168-0.262,0.41-0.207c2.242,0.496,4.531,0.031,6.773,0.299c1.289,0.154,2.475-0.127,3.705-0.27
		c0.949-0.111,1.203,0.492,1.271,1.279C461.725-38.209,461.73-36.211,461.57-34.201z M475.043-15.84
		c-0.012,0.645-0.438,0.666-0.908,0.666c-1.4-0.004-2.799-0.002-4.199-0.002v-0.125c-1.979,0-3.957,0.037-5.934-0.02
		c-0.73-0.023-1.025-0.76-1.279-1.305c-0.213-0.451-0.111-0.969,0.557-1.227c0.623-0.238,0.477-1.459-0.281-1.656
		c-0.959-0.25-0.861-0.758-0.607-1.381c0.447-1.086-0.305-2.102-0.119-3.191c0.129-0.744-0.045-1.537-0.051-2.309
		c-0.01-1.109,0.334-1.574,1.428-1.357c1.898,0.377,3.783-0.018,5.674,0.137c1.549,0.127,3.127-0.068,4.688-0.189
		c0.898-0.068,1.293,0.41,1.225,1.15C474.9-23.047,475.115-19.441,475.043-15.84z M475.268-36.854
		c-0.002,2.352-0.021,4.703,0.008,7.053c0.014,0.973-0.322,1.398-1.359,1.363c-3.428-0.115-6.859-0.156-10.289-0.244
		c-0.934-0.023-1.51-0.734-1.35-1.729c0.082-0.512,0.098-1.025,0.184-1.529c0.189-1.137,0.303-2.193,0.057-3.406
		c-0.383-1.883,0.078-3.816,0.863-5.611c0.217-0.498,0.717-0.375,1.072-0.309c1.941,0.369,3.895,0.17,5.842,0.184
		c1.318,0.01,2.641-0.113,3.957-0.211c0.766-0.057,1.061,0.234,1.027,1.012C475.232-39.141,475.268-37.996,475.268-36.854z
		 M473.959-42.133c-2.711,0.311-5.42,0.133-8.125,0.131c-1.043-0.002-2.303,0.143-3.053-1.031c-0.133-0.211-0.35-0.361-0.34-0.641
		c0.051-1.432-0.018-2.863,0.084-4.301c0.109-1.525-0.066-3.07-0.084-4.607c-0.02-1.646,0.598-2.229,2.219-2.209
		c1.4,0.018,2.801,0.004,4.201,0.004c1.658,0.002,3.316,0.012,4.975-0.002c1.438-0.01,1.434-0.021,1.434,1.451
		c-0.002,3.279-0.031,6.559,0.018,9.838C475.303-42.492,474.951-42.246,473.959-42.133z M488.768-22.637
		c-0.088,1.504,0.18,3.242-0.207,4.955c-0.041,0.176-0.014,0.369,0.006,0.551c0.258,2.18,0.25,2.307-1.877,2.146
		c-3.201-0.238-6.4-0.168-9.6-0.18c-0.725-0.002-1.162-0.305-0.887-0.967c0.582-1.4,0.402-2.707,0.107-4.15
		c-0.305-1.48-0.127-3.061-0.154-4.598c-0.01-0.551,0.01-1.105-0.006-1.658c-0.033-1.307,0.105-1.492,1.338-1.18
		c1.316,0.334,2.604-0.086,3.914,0.029c1.469,0.129,2.965-0.074,4.436,0.037c0.613,0.045,1.152-0.162,1.738-0.146
		c0.799,0.023,1.236,0.291,1.203,1.182C488.734-25.363,488.768-24.109,488.768-22.637z M488.986-40.402
		c-0.064,3.561-0.162,7.119-0.207,10.68c-0.012,1.012-0.598,1.26-1.422,1.266c-1.658,0.014-3.316,0.004-4.977,0.004
		c-1.658-0.002-3.316,0-4.975-0.002c-0.617-0.002-1.17-0.084-0.9-0.934c0.111-0.354-0.076-0.547-0.316-0.744
		c-0.145-0.119-0.293-0.412-0.168-0.469c1.271-0.563,0.096-1.307,0.188-1.934c0.188-1.289-0.238-2.564-0.031-3.824
		c0.184-1.111-0.09-2.189-0.035-3.285c0.051-0.977,0.268-1.445,1.467-1.52c3.066-0.189,6.133,0.18,9.191-0.121
		c0.328-0.031,0.723,0.08,0.982-0.064C489-42.023,489-41.209,488.986-40.402z M488.986-43.691c-0.004,1.383-0.301,1.701-1.674,1.734
		c-1.215,0.027-2.43,0.006-4.023,0.006c-1.557,0.205-3.488-0.189-5.432-0.047c-1.037,0.076-1.699-0.688-1.701-1.701
		c-0.004-2.969-0.008-5.938,0-8.906c0.006-1.551,0.639-2.236,2.152-2.166c3.072,0.143,6.148-0.18,9.223,0.135
		c1.447,0.146,1.457,0.037,1.457,1.486C488.988-49.998,488.992-46.844,488.986-43.691z M502.268-21.857
		c-0.002,1.658,0.02,3.318-0.008,4.977c-0.027,1.613-0.361,1.922-1.975,1.926c-2.506,0.008-5.012,0.02-7.518-0.01
		c-0.803-0.01-1.611-0.104-2.406-0.236c-0.719-0.121-1.295-1.438-0.787-2.076c0.598-0.752,0.445-1.527,0.191-2.166
		c-0.588-1.486-0.059-2.904-0.004-4.35c0.033-0.904,0.389-1.768,0.178-2.715c-0.184-0.813,0.355-1.072,1.123-1.066
		c2.615,0.021,5.232,0.012,7.85,0.004c0.77-0.004,1.537,0.051,2.303-0.168c0.734-0.209,1.084,0.096,1.064,0.906
		C502.24-25.174,502.268-23.516,502.268-21.857z M502.473-39.578c-0.313,2.027,0.004,4.066-0.16,6.104
		c-0.113,1.406,0.334,2.836-0.029,4.268c-0.098,0.385-0.109,0.764-0.607,0.74c-0.891-0.039-1.734,0.381-2.633,0.256
		c-2.754-0.492-5.533,0.018-8.301-0.211c-1.018-0.084-1.139-0.824-1.016-1.348c0.359-1.531-0.209-2.998-0.09-4.502
		c0.145-1.822,0.152-3.654,0.246-5.48c0.047-0.941,0.822-1.52,1.676-1.469c3.297,0.199,6.598,0.23,9.895,0.055
		c0.6-0.031,0.807,0.08,0.877,0.613C502.375-40.225,502.521-39.889,502.473-39.578z M502.479-43.457
		c0.051,1.26-0.596,1.691-1.854,1.693c-0.973,0.002-1.951-0.043-2.928-0.025c-2.201,0.039-4.408-0.072-6.609-0.207
		c-1.205-0.074-1.195-1.221-1.156-1.947c0.17-3.109-0.309-6.209-0.053-9.313c0.1-1.195,0.578-1.439,1.768-1.385
		c2.461,0.113,4.936,0.26,7.387-0.084c1.072-0.15,2.121,0.141,3.18-0.023c0.35-0.055,0.4,0.186,0.359,0.504
		c-0.066,0.51-0.076,1.025-0.127,1.816C503.004-49.621,502.355-46.541,502.479-43.457z"/>
	<path fill-rule="evenodd" clip-rule="evenodd" fill="none" d="M433.996,128.84c-0.02,0.713-0.027,1.424-0.064,2.137
		c-0.209,3.861-0.041,7.742-0.041,11.615c0,1.557,0,1.557-1.564,1.557c-25.299,0.002-50.598,0.008-75.896,0.006
		c-8.262-0.002-16.523-0.02-24.783-0.029c-3.25,0.002-6.5,0.004-9.748,0.006l-8.4-0.012c-6.85-0.004-13.699-0.008-20.549-0.012
		c-4.584,0.018-9.168,0.037-13.752,0.055c0.244,0.463,0.672,0.209,0.996,0.209c52.211,0.008,104.422,0.008,156.633,0.008
		C435.744,139.23,434.781,134.043,433.996,128.84z"/>
</g>
<g>
</g>
<g>
</g>
<g>
	<path fill-rule="evenodd" clip-rule="evenodd" fill="#CACACA" d="M293.752,57.167c-1.24-0.648-2.246-0.271-3.275,0.271
		c-0.355,0.185-0.596,0.585-1.064,0.626c-1.855,0.144-3.555,0.99-5.268,1.539c-3.668,1.169-7.596,1.022-11.152,2.591
		c-2.174,0.961-4.656,0.68-6.92,1.52c-2.014,0.748-4.172,1.239-6.35,0.444c-0.205,0.007-0.406,0.016-0.609,0.023
		c-0.123,0.523-0.584,0.516-0.979,0.665c-4.123,1.579-8.504,2.192-12.781,3.034c-3.924,0.77-7.938,1.255-11.869,2.049
		c-3.168,0.635-6.359,1.224-9.531,1.8c-3.451,0.623-6.922,1.229-10.398,1.755c-2.074,0.31-4.074,1.051-6.215,0.622
		c-1.109,1.212-2.564,0.333-3.824,0.632c-0.949,1.1-2.342,0.917-3.559,1.239c-1.797,0.171-3.588,0.471-5.398,0.34
		c-0.119,0.166-0.205,0.438-0.365,0.488c-2.842,0.925-5.846,1.158-8.709,2.034c-2.432,0.746-5.057,0.647-7.488,1.45
		c-3.547,1.168-7.311,1.303-10.881,2.503c-2.658,0.896-5.574,0.994-8.35,1.686c-3.98,0.989-8.027,1.691-12.012,2.73
		c-3.551,0.925-7.244,1.331-10.729,2.536c-2.496,0.86-5.279,0.434-7.637,1.819c-0.215,0.12-0.549,0.009-0.785,0.108
		c-1.078,0.457-2.285-0.346-3.264,0.178c-2.123,1.139-4.578,0.739-6.801,1.886c-2.131,1.097-4.672,1.648-7.309,1.44
		c-2.248-0.178-4.6,0.319-6.82,0.178c-2.648-0.166-5.291,0.211-7.92-0.171c-3.053-0.441-5.906,0.83-8.863,1.197
		c-4.232,0.527-8.508,1.014-12.693,1.975c-3.094,0.71-6.195,1.4-9.311,1.988c-3.615,0.681-6.963,2.24-10.527,3.056
		c-0.422,0.093-0.988,0.531-1.324,0.046c-0.373-0.537-0.309-1.254,0.025-1.818c0.238-0.393,0.627-0.728,1.016-0.987
		c1.223-0.832,2.273-1.885,3.43-2.794c1.715-1.337,3.307-2.896,5.096-4.127c3.623-2.492,6.859-5.506,10.859-7.512
		c2.859-1.433,5.285-3.719,8.135-5.178c3.238-1.655,6.402-3.47,9.744-4.949c3.084-1.362,5.992-3.11,9.027-4.588
		c4.648-2.269,9.375-4.37,14.137-6.393c2.961-1.258,5.969-2.378,9.021-3.387c1.75-0.58,3.467-1.276,5.232-1.822
		c2.773-0.855,5.533-1.902,8.383-2.367c3.303-0.536,6.48-1.563,9.742-2.231c4.451-0.911,8.916-1.088,13.389-1.291
		c2.246-0.101,4.584,0.096,6.758,0.648c1.695,0.433,3.594,0.606,4.988,2.083c0.742,0.787,2.336,1.337,2.973,0.298
		c1.201-1.956,3.162-3.53,3.363-6.062c0.158-2.045-0.188-4.05-1.664-5.428c-2.434-2.271-5.699-3.124-8.82-3.65
		c-4.352-0.738-8.797-1.035-13.264-0.51c-1.813,0.213-3.695,0.348-5.547,0.049c-0.668,0.121-1.166,0.771-1.924,0.612
		c-0.184,0.314-0.385,0.333-0.613,0.045c-0.32,0.003-0.641,0.007-0.959,0.011c-0.402,1.01-1.262,0.482-1.934,0.579
		c-2.207-0.128-4.146,1.396-6.389,1.025c-0.789,0.317-1.557,0.715-2.367,0.945c-3.104,0.878-6.338,1.25-9.324,2.572
		c-2.996,1.326-6.205,2.065-9.27,3.239c-1.439,0.552-2.723,1.544-4.244,1.758c-1.922,0.267-3.545,1.25-5.211,2.036
		c-2.855,1.352-5.703,2.788-8.527,4.173c-3.453,1.697-6.885,3.484-10.186,5.396c-3.717,2.147-7.691,3.82-11.205,6.427
		c-2.031,1.505-4.502,2.608-6.73,3.997c-2.43,1.514-4.871,3.028-7.203,4.67c-4.047,2.845-7.936,5.92-11.826,8.979
		c-2.08,1.631-4.061,3.396-6.025,5.171c-2.545,2.309-5.043,4.67-7.537,7.034c-4.428,4.197-8.652,8.59-12.631,13.218
		c-1.191,1.394-2.732,2.469-3.592,4.18c-0.346,0.688-1.027,1.206-1.531,1.822c-1.781,2.165-2.941,4.815-5.051,6.703
		c-1.168,1.041-2.238,2.03-2.506,3.65c-0.041,0.236-0.322,0.421-0.453,0.647c-1.033,1.798-3.098,3.128-2.5,5.677
		c0.074,0.317-0.295,0.772-0.525,1.124c-1.328,2.044-1.893,4.394-2.191,6.714c-0.338,2.596-0.324,5.284,0.137,7.873
		c0.172,0.945,0.037,1.985,0.711,2.953c2.475,3.528,4.768,7.075,8.758,9.311c2.186,1.222,4.361,2.291,6.713,3.003
		c7.117,2.157,14.234,0.787,21.234-0.509c3.83-0.713,7.908-1.112,11.318-3.425c0.129-0.085,0.305-0.125,0.461-0.125
		c1.783-0.049,3.35-0.903,5.004-1.405c2.443-0.738,4.852-1.646,7.193-2.658c1.254-0.543,2.715-0.738,3.758-1.473
		c1.834-1.292,3.801-2.219,5.822-3.115c1.031-0.458,2.572-0.239,3.094-0.917c0.912-1.18,2.152-1.455,3.268-2.103
		c0.57-0.332,1.201-0.787,1.746-0.29c0.578,0.521,0.25,1.233-0.025,1.906c-1.273,3.133-2.873,6.119-4.213,9.214
		c-2.336,5.408-4.879,10.74-6.723,16.34c-0.928,2.824-2.551,5.318-3.521,8.072c-0.807,2.307-2.18,4.443-2.297,6.987
		c-0.023,0.558-0.316,1.114-0.553,1.649c-1.256,2.835-2.393,5.695-3.027,8.769c-0.596,2.897-2.076,5.55-2.346,8.588
		c-0.146,1.623-1.301,3.169-1.385,4.783c-0.154,2.889-1.115,5.566-1.672,8.34c-0.313,1.572-1.141,3.053-1.555,4.527
		c-0.961,3.45-1.434,7.081-1.688,10.676c-0.158,2.226-0.842,4.369-0.813,6.626c0.02,1.319,0.551,2.524,0.428,3.875
		c-0.236,2.581-0.559,5.221-0.258,7.765c0.432,3.655,0.146,7.724,3.844,10.211c0.207,0.14,0.398,0.399,0.461,0.64
		c0.225,0.902,0.967,1.309,1.689,1.556c2.902,1.002,5.844,1.956,8.395-0.824c0.104-0.116,0.258-0.191,0.395-0.263
		c2.152-1.044,2.715-3.478,1.188-5.253c-0.158-0.178-0.455-0.343-0.693-0.343c-2.385-0.016-3.1-1.824-3.92-3.56
		c-0.875-1.85-0.523-3.846-0.572-5.747c-0.111-4.059,0.094-8.138,0.59-12.181c0.244-1.993,0.316-4.062,0.951-5.933
		c0.453-1.326,0.939-2.657,0.893-3.979c-0.145-4.004,0.928-7.84,1.957-11.561c1.051-3.78,0.813-7.958,3.188-11.363
		c0.025-0.037,0.025-0.102,0.021-0.16c-0.217-2.504,1.607-4.409,2.004-6.765c0.205-1.207,0.609-2.455,0.988-3.662
		c0.588-1.884,1.9-3.474,2.143-5.463c0.168-1.434,0.568-2.604,2.838-2.549c-1.838-0.752-1.848-1.9-1.359-2.91
		c2.027-4.184,3.332-8.654,5.24-12.884c1.063-2.366,2.271-4.657,3.076-7.136c0.779-2.404,3.184-4.069,3.156-6.86
		c-0.004-0.17,0.248-0.335,0.355-0.513c1.537-2.529,2.781-5.224,4.096-7.858c1.65-3.292,3.072-6.685,4.813-9.95
		c1.398-2.625,3.428-4.191,5.871-5.551c1.744-0.971,3.664-1.584,5.156-3.116c0.744-0.772,1.391-1.71,2.359-2.31
		c2.723-1.697,5.221-3.63,7.318-6.138c1.916-2.297,4.188-4.275,5.846-6.824c0.734-1.133,2.152-1.671,2.723-3.117
		c0.955-2.422,1.863-4.798,0.514-7.302c-1.104-2.053-0.967-2.455,1.33-2.761c0.262-0.037,0.541-0.026,0.791-0.103
		c5.676-1.789,11.563-2.722,17.291-4.307c5.299-1.466,10.766-2.208,16.066-3.775c5.758-1.702,11.678-2.889,17.563-4.104
		c2.139-0.442,4.074-1.505,6.25-1.727c2.885-0.294,5.73-0.565,8.539-1.55c2.691-0.943,5.443-1.657,7.826-3.447
		c0.426,0.955,0.359,3.034,2.043,0.963c0.123-0.153,0.508-0.155,0.764-0.131c1.686,0.179,3.262-0.316,4.852-0.742
		c1.383-0.37,2.75-0.89,4.156-1.028c1.6-0.159,3.107-0.465,4.609-1.052c2.27-0.884,4.816-0.674,7.088-1.652
		c0.268-0.116,0.633-0.003,0.949-0.025c0.633-0.038,1.357,0.085,1.885-0.178c2.889-1.457,6.275-1.088,9.15-2.551
		c0.313-0.157,0.732-0.131,1.102-0.139c1.666-0.029,3.49,0.215,3.555-2.45c0.449,0.834,0.221,2.424,1.355,1.845
		c1.307-0.662,2.664-0.645,3.967-1.024c3.268-0.95,6.318-2.701,9.902-2.605c0.916,0.025,2.293-0.182,2.428-1.725
		c0.035-0.403,0.314-0.689,0.752-0.679c0.434,0.011,0.732,0.263,0.643,0.715c-0.129,0.642,0.211,0.521,0.664,0.67
		c2.195,0.728,3.467-1.201,5.227-1.696c2.381-0.665,4.654-1.816,7.064-2.242c2.229-0.397,4.293-0.839,5.992-2.406
		c0.227-0.207,0.506-0.436,0.797-0.489c1.439-0.271,2.316-1.168,2.803-2.478c0.203-0.53,0.572-0.907,1.061-0.723
		c1.561,0.586,2.264-0.497,2.992-1.455c1.029-1.348,1.215-3.037,1.645-4.608C294.785,58.819,295.031,57.838,293.752,57.167z
		 M103.604,117.051c-1.246,1.917-2.305,3.939-3.021,6.083c-0.676,2.009-2.172,3.48-3.031,5.357c-1.107,2.42-3.176,3.755-5.559,4.925
		c-1.861,0.916-3.707,1.925-5.557,2.903c-3.074,1.62-6.184,3.153-9.359,4.567c-1.594,0.71-3.367,1.188-4.795,2.034
		c-3.301,1.946-6.816,3.319-10.314,4.772c-2.527,1.058-5.057,2.131-7.65,2.993c-2.482,0.829-4.703,2.339-7.463,2.479
		c-5.027,0.245-9.781,2.305-14.928,2.136c-4.145-0.14-8.1-0.734-11.719-2.755c-1.127-0.632-1.791-1.911-2.453-3.051
		c-1.516-2.598-1.166-5.229,0.189-7.73c1.957-3.619,3.941-7.234,6.506-10.479c1.873-2.372,3.539-4.968,5.711-7.035
		c2.627-2.497,4.713-5.476,7.436-7.876c0.672-0.589,1.361-0.938,2.119-1.06c0.172-0.252,0.367-0.486,0.588-0.701
		c-0.184-0.049-0.34-0.152-0.393-0.397c-0.063-0.309,0.184-0.461,0.383-0.644c3.273-2.956,6.074-6.407,9.549-9.156
		c0.408-0.324,0.77-0.852,1.367-0.479c0.648,0.4,0.211,0.958,0.082,1.435c-0.801,3.019-0.492,6.204,0.852,8.724
		c2.252,4.221,5.545,7.38,11.129,7.016c2.756-0.178,5.59-0.37,8.396,0.056c0.898,0.137,1.904-0.447,2.857-0.696
		c5.078-1.326,10.24-2.03,15.457-2.573c1.363-0.143,2.922-0.903,4.414-1.33c2.764-0.794,5.539-1.216,8.436-1.02
		C104.217,115.642,104.092,116.308,103.604,117.051z"/>
</g>
<g>
</g>
</svg>
